<svg width="24" height="25" viewBox="0 0 24 25" fill="none" xmlns="http://www.w3.org/2000/svg">
<path d="M0.75 12.5002C0.75 17.4127 3.9 21.5752 8.25 23.1127V1.8877C3.9 3.4252 0.75 7.58769 0.75 12.5002Z" fill="#FF0000"/>
<path d="M12 1.25C10.6875 1.25 9.4125 1.475 8.25 1.8875V8.75H22.6125C21.075 4.4 16.9125 1.25 12 1.25Z" fill="#017430"/>
<path d="M22.6125 8.75H8.25V16.25H22.6125C23.025 15.0875 23.25 13.8125 23.25 12.5C23.25 11.1875 23.025 9.9125 22.6125 8.75Z" fill="#F9F9F9"/>
<path d="M8.25 16.25V23.1125C9.4125 23.525 10.6875 23.75 12 23.75C16.9125 23.75 21.075 20.6375 22.6125 16.25H8.25Z" fill="black"/>
</svg>
