<svg width="24" height="25" viewBox="0 0 24 25" fill="none" xmlns="http://www.w3.org/2000/svg">
<g clip-path="url(#clip0_1798_28977)">
<mask id="mask0_1798_28977" style="mask-type:luminance" maskUnits="userSpaceOnUse" x="0" y="0" width="24" height="25">
<path d="M12 24.5C18.6274 24.5 24 19.1274 24 12.5C24 5.87258 18.6274 0.5 12 0.5C5.37258 0.5 0 5.87258 0 12.5C0 19.1274 5.37258 24.5 12 24.5Z" fill="white"/>
</mask>
<g mask="url(#mask0_1798_28977)">
<path d="M12 0.5H24V3.5L22.5 5L24 6.5V9.5L22.5 11L24 12.5V15.5L22.5 17L24 18.5V21.5L12 23L0 21.5V18.5L1.5 17L0 15.5V12.5L12 0.5Z" fill="#EEEEEE"/>
<path d="M10.5 3.5H24V6.5H10.5V3.5ZM10.5 9.5H24V12.5H12L10.5 9.5ZM0 15.5H24V18.5H0V15.5ZM0 21.5H24V24.5H0V21.5Z" fill="#D80027"/>
<path d="M0 0.5H12V12.5H0V0.5Z" fill="#0052B4"/>
<path d="M8.76562 11.8906L11.4375 9.96875H8.15625L10.8281 11.8906L9.79688 8.75L8.76562 11.8906ZM4.96875 11.8906L7.64062 9.96875H4.35938L7.03125 11.8906L6 8.75L4.96875 11.8906ZM1.17188 11.8906L3.84375 9.96875H0.5625L3.23438 11.8906L2.20312 8.75L1.17188 11.8906ZM8.76562 8.09375L11.4375 6.17188H8.15625L10.8281 8.09375L9.79688 4.95312L8.76562 8.09375ZM4.96875 8.09375L7.64062 6.17188H4.35938L7.03125 8.09375L6 4.95312L4.96875 8.09375ZM1.17188 8.09375L3.84375 6.17188H0.5625L3.23438 8.09375L2.20312 4.95312L1.17188 8.09375ZM8.76562 4.25L11.4375 2.32812H8.15625L10.8281 4.25L9.79688 1.10938L8.76562 4.25ZM4.96875 4.25L7.64062 2.32812H4.35938L7.03125 4.25L6 1.10938L4.96875 4.25ZM1.17188 4.25L3.84375 2.32812H0.5625L3.23438 4.25L2.20312 1.10938L1.17188 4.25Z" fill="#EEEEEE"/>
</g>
</g>
<defs>
<clipPath id="clip0_1798_28977">
<rect width="24" height="24" fill="white" transform="translate(0 0.5)"/>
</clipPath>
</defs>
</svg>
