<svg width="279" height="114" viewBox="0 0 279 114" fill="none" xmlns="http://www.w3.org/2000/svg">
<mask id="path-1-outside-1_4_1877" maskUnits="userSpaceOnUse" x="-0.5" y="0.235107" width="279" height="114" fill="black">
<rect fill="white" x="-0.5" y="0.235107" width="279" height="114"/>
<path d="M60.276 27.0751C61.94 30.4671 62.772 34.2431 62.772 38.4031C62.772 42.5631 61.94 46.3391 60.276 49.7311C58.612 53.0591 56.468 55.7151 53.844 57.6991C48.532 61.7951 43.028 63.8431 37.332 63.8431H25.332V74.6911C25.332 76.1631 25.268 77.2831 25.14 78.0511C25.076 78.7551 24.788 79.5871 24.276 80.5471C23.38 82.2751 20.884 83.1391 16.788 83.1391C12.308 83.1391 9.684 81.9551 8.916 79.5871C8.532 78.4991 8.34 76.8351 8.34 74.5951V21.3151C8.34 19.8431 8.372 18.7551 8.436 18.0511C8.564 17.2831 8.884 16.4191 9.396 15.4591C10.292 13.7311 12.788 12.8671 16.884 12.8671H37.428C43.06 12.8671 48.532 14.9151 53.844 19.0111C56.468 20.9951 58.612 23.6831 60.276 27.0751ZM37.428 46.8511C39.348 46.8511 41.236 46.1471 43.092 44.7391C44.948 43.3311 45.876 41.2191 45.876 38.4031C45.876 35.5871 44.948 33.4751 43.092 32.0671C41.236 30.5951 39.316 29.8591 37.332 29.8591H25.332V46.8511H37.428ZM101.828 38.0191C102.212 34.4351 104.74 32.6431 109.412 32.6431C111.908 32.6431 113.764 32.8351 114.98 33.2191C116.196 33.6031 117.028 34.2751 117.476 35.2351C117.988 36.1951 118.276 37.0591 118.34 37.8271C118.468 38.5311 118.532 39.6191 118.532 41.0911V74.6911C118.532 76.1631 118.468 77.2831 118.34 78.0511C118.276 78.7551 118.02 79.5871 117.572 80.5471C116.676 82.2111 114.468 83.0431 110.948 83.0431C107.492 83.0431 105.156 82.6271 103.94 81.7951C102.788 80.8991 102.116 79.6191 101.924 77.9551C99.5563 81.3471 95.5883 83.0431 90.0203 83.0431C84.5163 83.0431 79.3963 80.5151 74.6603 75.4591C69.9243 70.4031 67.5563 64.5471 67.5563 57.8911C67.5563 51.1711 69.9243 45.3151 74.6603 40.3231C79.4603 35.2671 84.7083 32.7391 90.4043 32.7391C92.5803 32.7391 94.5643 33.1231 96.3563 33.8911C98.1483 34.6591 99.3963 35.3951 100.1 36.0991C100.804 36.7391 101.38 37.3791 101.828 38.0191ZM84.3563 57.9871C84.3563 60.0991 85.1883 62.0191 86.8523 63.7471C88.5163 65.4111 90.5323 66.2431 92.9003 66.2431C95.2683 66.2431 97.2203 65.3791 98.7563 63.6511C100.356 61.9231 101.156 60.0351 101.156 57.9871C101.156 55.8751 100.388 53.9231 98.8523 52.1311C97.3803 50.3391 95.3643 49.4431 92.8043 49.4431C90.3083 49.4431 88.2603 50.3391 86.6603 52.1311C85.1243 53.9231 84.3563 55.8751 84.3563 57.9871ZM160.552 33.2191C161.768 33.6031 162.76 34.2751 163.528 35.2351C164.36 36.1311 164.776 37.6031 164.776 39.6511C164.776 41.6991 164.168 43.9391 162.952 46.3711C161.736 48.8031 159.976 50.0191 157.672 50.0191C156.52 50.0191 155.4 49.7631 154.312 49.2511C153.288 48.7391 151.912 48.4831 150.184 48.4831C148.456 48.4831 146.824 49.0911 145.288 50.3071C143.816 51.5231 143.08 52.9951 143.08 54.7231V74.8831C143.08 76.3551 143.016 77.4751 142.888 78.2431C142.824 78.9471 142.536 79.7791 142.024 80.7391C141.064 82.4031 138.568 83.2351 134.536 83.2351C131.464 83.2351 129.256 82.6911 127.912 81.6031C126.888 80.7071 126.312 79.3311 126.184 77.4751C126.184 76.8351 126.184 75.9071 126.184 74.6911V40.9951C126.184 39.5231 126.216 38.4351 126.28 37.7311C126.408 36.9631 126.696 36.1311 127.144 35.2351C128.04 33.5071 130.536 32.6431 134.632 32.6431C138.472 32.6431 140.872 33.3791 141.832 34.8511C142.536 35.8751 142.888 36.9311 142.888 38.0191C143.208 37.5711 143.656 37.0271 144.232 36.3871C144.872 35.7471 146.184 34.8831 148.168 33.7951C150.152 32.7071 151.88 32.1631 153.352 32.1631C154.888 32.1631 156.168 32.2591 157.192 32.4511C158.216 32.5791 159.336 32.8351 160.552 33.2191ZM199.819 57.8911L212.587 68.4511C214.187 69.7951 215.179 70.8191 215.563 71.5231C216.011 72.2271 216.235 72.8991 216.235 73.5391C216.235 75.0751 215.243 77.1551 213.259 79.7791C211.083 82.4671 209.163 83.8111 207.499 83.8111C206.091 83.8111 204.139 82.8831 201.643 81.0271L200.683 80.3551C199.211 79.1391 196.939 77.0271 193.867 74.0191C190.795 70.9471 188.459 68.7711 186.859 67.4911V74.8831C186.859 76.3551 186.795 77.4751 186.667 78.2431C186.603 78.9471 186.315 79.7791 185.803 80.7391C184.971 82.4031 182.507 83.2351 178.411 83.2351C174.379 83.2351 171.915 82.3711 171.019 80.6431C170.571 79.6831 170.283 78.8511 170.155 78.1471C170.091 77.3791 170.059 76.2591 170.059 74.7871V17.2831C170.059 15.8111 170.091 14.7231 170.155 14.0191C170.283 13.2511 170.571 12.3871 171.019 11.4271C171.915 9.6991 174.411 8.8351 178.507 8.8351C181.579 8.8351 183.755 9.3791 185.035 10.4671C186.123 11.3631 186.699 12.7711 186.763 14.6911C186.827 15.2671 186.859 16.1631 186.859 17.3791V47.8111C188.011 46.8511 189.739 45.2191 192.043 42.9151C194.411 40.6111 196.171 38.9791 197.323 38.0191L198.475 37.2511C200.715 35.5231 202.635 34.6591 204.235 34.6591C205.835 34.6591 207.659 35.9711 209.707 38.5951C211.819 41.1551 212.875 43.1711 212.875 44.6431C212.875 46.1151 211.691 47.8431 209.323 49.8271L199.819 57.8911ZM264.724 33.2191C268.5 34.8831 270.388 36.8991 270.388 39.2671C270.388 40.4191 270.132 41.5071 269.62 42.5311C269.108 43.5551 268.852 44.0991 268.852 44.1631L243.7 100.419C243.188 101.635 242.74 102.563 242.356 103.203C242.036 103.843 241.492 104.451 240.724 105.027C239.956 105.603 238.996 105.891 237.844 105.891C236.692 105.891 234.996 105.411 232.756 104.451C228.98 102.787 227.092 100.803 227.092 98.4991C227.092 96.9631 230.164 89.6351 236.308 76.5151L217.204 44.3551C215.924 42.2431 215.284 40.6751 215.284 39.6511C215.284 37.6031 217.012 35.5551 220.468 33.5071C222.644 32.2271 224.34 31.5871 225.556 31.5871C226.772 31.5871 227.764 31.8431 228.532 32.3551C229.3 32.8671 229.844 33.4111 230.164 33.9871C230.548 34.4991 232.308 37.4751 235.444 42.9151C238.644 48.2911 241.684 53.3151 244.564 57.9871C244.884 56.9631 246.612 53.0271 249.748 46.1791C252.884 39.2671 254.548 35.5871 254.74 35.1391C254.996 34.6911 255.38 34.1471 255.892 33.5071C256.724 32.4191 257.876 31.8751 259.348 31.8751C260.884 31.8751 262.676 32.3231 264.724 33.2191Z"/>
</mask>
<path d="M60.276 27.0751C61.94 30.4671 62.772 34.2431 62.772 38.4031C62.772 42.5631 61.94 46.3391 60.276 49.7311C58.612 53.0591 56.468 55.7151 53.844 57.6991C48.532 61.7951 43.028 63.8431 37.332 63.8431H25.332V74.6911C25.332 76.1631 25.268 77.2831 25.14 78.0511C25.076 78.7551 24.788 79.5871 24.276 80.5471C23.38 82.2751 20.884 83.1391 16.788 83.1391C12.308 83.1391 9.684 81.9551 8.916 79.5871C8.532 78.4991 8.34 76.8351 8.34 74.5951V21.3151C8.34 19.8431 8.372 18.7551 8.436 18.0511C8.564 17.2831 8.884 16.4191 9.396 15.4591C10.292 13.7311 12.788 12.8671 16.884 12.8671H37.428C43.06 12.8671 48.532 14.9151 53.844 19.0111C56.468 20.9951 58.612 23.6831 60.276 27.0751ZM37.428 46.8511C39.348 46.8511 41.236 46.1471 43.092 44.7391C44.948 43.3311 45.876 41.2191 45.876 38.4031C45.876 35.5871 44.948 33.4751 43.092 32.0671C41.236 30.5951 39.316 29.8591 37.332 29.8591H25.332V46.8511H37.428ZM101.828 38.0191C102.212 34.4351 104.74 32.6431 109.412 32.6431C111.908 32.6431 113.764 32.8351 114.98 33.2191C116.196 33.6031 117.028 34.2751 117.476 35.2351C117.988 36.1951 118.276 37.0591 118.34 37.8271C118.468 38.5311 118.532 39.6191 118.532 41.0911V74.6911C118.532 76.1631 118.468 77.2831 118.34 78.0511C118.276 78.7551 118.02 79.5871 117.572 80.5471C116.676 82.2111 114.468 83.0431 110.948 83.0431C107.492 83.0431 105.156 82.6271 103.94 81.7951C102.788 80.8991 102.116 79.6191 101.924 77.9551C99.5563 81.3471 95.5883 83.0431 90.0203 83.0431C84.5163 83.0431 79.3963 80.5151 74.6603 75.4591C69.9243 70.4031 67.5563 64.5471 67.5563 57.8911C67.5563 51.1711 69.9243 45.3151 74.6603 40.3231C79.4603 35.2671 84.7083 32.7391 90.4043 32.7391C92.5803 32.7391 94.5643 33.1231 96.3563 33.8911C98.1483 34.6591 99.3963 35.3951 100.1 36.0991C100.804 36.7391 101.38 37.3791 101.828 38.0191ZM84.3563 57.9871C84.3563 60.0991 85.1883 62.0191 86.8523 63.7471C88.5163 65.4111 90.5323 66.2431 92.9003 66.2431C95.2683 66.2431 97.2203 65.3791 98.7563 63.6511C100.356 61.9231 101.156 60.0351 101.156 57.9871C101.156 55.8751 100.388 53.9231 98.8523 52.1311C97.3803 50.3391 95.3643 49.4431 92.8043 49.4431C90.3083 49.4431 88.2603 50.3391 86.6603 52.1311C85.1243 53.9231 84.3563 55.8751 84.3563 57.9871ZM160.552 33.2191C161.768 33.6031 162.76 34.2751 163.528 35.2351C164.36 36.1311 164.776 37.6031 164.776 39.6511C164.776 41.6991 164.168 43.9391 162.952 46.3711C161.736 48.8031 159.976 50.0191 157.672 50.0191C156.52 50.0191 155.4 49.7631 154.312 49.2511C153.288 48.7391 151.912 48.4831 150.184 48.4831C148.456 48.4831 146.824 49.0911 145.288 50.3071C143.816 51.5231 143.08 52.9951 143.08 54.7231V74.8831C143.08 76.3551 143.016 77.4751 142.888 78.2431C142.824 78.9471 142.536 79.7791 142.024 80.7391C141.064 82.4031 138.568 83.2351 134.536 83.2351C131.464 83.2351 129.256 82.6911 127.912 81.6031C126.888 80.7071 126.312 79.3311 126.184 77.4751C126.184 76.8351 126.184 75.9071 126.184 74.6911V40.9951C126.184 39.5231 126.216 38.4351 126.28 37.7311C126.408 36.9631 126.696 36.1311 127.144 35.2351C128.04 33.5071 130.536 32.6431 134.632 32.6431C138.472 32.6431 140.872 33.3791 141.832 34.8511C142.536 35.8751 142.888 36.9311 142.888 38.0191C143.208 37.5711 143.656 37.0271 144.232 36.3871C144.872 35.7471 146.184 34.8831 148.168 33.7951C150.152 32.7071 151.88 32.1631 153.352 32.1631C154.888 32.1631 156.168 32.2591 157.192 32.4511C158.216 32.5791 159.336 32.8351 160.552 33.2191ZM199.819 57.8911L212.587 68.4511C214.187 69.7951 215.179 70.8191 215.563 71.5231C216.011 72.2271 216.235 72.8991 216.235 73.5391C216.235 75.0751 215.243 77.1551 213.259 79.7791C211.083 82.4671 209.163 83.8111 207.499 83.8111C206.091 83.8111 204.139 82.8831 201.643 81.0271L200.683 80.3551C199.211 79.1391 196.939 77.0271 193.867 74.0191C190.795 70.9471 188.459 68.7711 186.859 67.4911V74.8831C186.859 76.3551 186.795 77.4751 186.667 78.2431C186.603 78.9471 186.315 79.7791 185.803 80.7391C184.971 82.4031 182.507 83.2351 178.411 83.2351C174.379 83.2351 171.915 82.3711 171.019 80.6431C170.571 79.6831 170.283 78.8511 170.155 78.1471C170.091 77.3791 170.059 76.2591 170.059 74.7871V17.2831C170.059 15.8111 170.091 14.7231 170.155 14.0191C170.283 13.2511 170.571 12.3871 171.019 11.4271C171.915 9.6991 174.411 8.8351 178.507 8.8351C181.579 8.8351 183.755 9.3791 185.035 10.4671C186.123 11.3631 186.699 12.7711 186.763 14.6911C186.827 15.2671 186.859 16.1631 186.859 17.3791V47.8111C188.011 46.8511 189.739 45.2191 192.043 42.9151C194.411 40.6111 196.171 38.9791 197.323 38.0191L198.475 37.2511C200.715 35.5231 202.635 34.6591 204.235 34.6591C205.835 34.6591 207.659 35.9711 209.707 38.5951C211.819 41.1551 212.875 43.1711 212.875 44.6431C212.875 46.1151 211.691 47.8431 209.323 49.8271L199.819 57.8911ZM264.724 33.2191C268.5 34.8831 270.388 36.8991 270.388 39.2671C270.388 40.4191 270.132 41.5071 269.62 42.5311C269.108 43.5551 268.852 44.0991 268.852 44.1631L243.7 100.419C243.188 101.635 242.74 102.563 242.356 103.203C242.036 103.843 241.492 104.451 240.724 105.027C239.956 105.603 238.996 105.891 237.844 105.891C236.692 105.891 234.996 105.411 232.756 104.451C228.98 102.787 227.092 100.803 227.092 98.4991C227.092 96.9631 230.164 89.6351 236.308 76.5151L217.204 44.3551C215.924 42.2431 215.284 40.6751 215.284 39.6511C215.284 37.6031 217.012 35.5551 220.468 33.5071C222.644 32.2271 224.34 31.5871 225.556 31.5871C226.772 31.5871 227.764 31.8431 228.532 32.3551C229.3 32.8671 229.844 33.4111 230.164 33.9871C230.548 34.4991 232.308 37.4751 235.444 42.9151C238.644 48.2911 241.684 53.3151 244.564 57.9871C244.884 56.9631 246.612 53.0271 249.748 46.1791C252.884 39.2671 254.548 35.5871 254.74 35.1391C254.996 34.6911 255.38 34.1471 255.892 33.5071C256.724 32.4191 257.876 31.8751 259.348 31.8751C260.884 31.8751 262.676 32.3231 264.724 33.2191Z" fill="#05A144"/>
<path d="M60.276 27.0751L67.4583 23.5517V23.5517L60.276 27.0751ZM60.276 49.7311L67.4314 53.3088L67.445 53.2817L67.4583 53.2545L60.276 49.7311ZM53.844 57.6991L49.0191 51.3178L48.9889 51.3407L48.9589 51.3638L53.844 57.6991ZM25.332 63.8431V55.8431H17.332V63.8431H25.332ZM25.14 78.0511L17.2488 76.7359L17.1998 77.03L17.1729 77.3268L25.14 78.0511ZM24.276 80.5471L17.2172 76.7824L17.1953 76.8234L17.174 76.8646L24.276 80.5471ZM8.916 79.5871L16.5258 77.1191L16.4941 77.0214L16.4599 76.9245L8.916 79.5871ZM8.436 18.0511L0.544848 16.7359L0.495842 17.03L0.468854 17.3268L8.436 18.0511ZM9.396 15.4591L16.4548 19.2238L16.4767 19.1829L16.498 19.1416L9.396 15.4591ZM53.844 19.0111L48.9589 25.3464L48.9889 25.3695L49.0191 25.3924L53.844 19.0111ZM43.092 44.7391L38.2569 38.3656L38.2569 38.3656L43.092 44.7391ZM43.092 32.0671L38.1208 38.3351L38.1883 38.3886L38.2569 38.4406L43.092 32.0671ZM25.332 29.8591V21.8591H17.332V29.8591H25.332ZM25.332 46.8511H17.332V54.8511H25.332V46.8511ZM53.0937 30.5985C54.1672 32.7868 54.772 35.3394 54.772 38.4031H70.772C70.772 33.1468 69.7128 28.1474 67.4583 23.5517L53.0937 30.5985ZM54.772 38.4031C54.772 41.4668 54.1672 44.0194 53.0937 46.2077L67.4583 53.2545C69.7128 48.6588 70.772 43.6594 70.772 38.4031H54.772ZM53.1206 46.1534C51.9346 48.5253 50.539 50.1687 49.0191 51.3178L58.6689 64.0804C62.397 61.2615 65.2894 57.5929 67.4314 53.3088L53.1206 46.1534ZM48.9589 51.3638C44.7886 54.5795 40.9601 55.8431 37.332 55.8431V71.8431C45.0959 71.8431 52.2754 69.0107 58.7291 64.0344L48.9589 51.3638ZM37.332 55.8431H25.332V71.8431H37.332V55.8431ZM17.332 63.8431V74.6911H33.332V63.8431H17.332ZM17.332 74.6911C17.332 75.3188 17.3182 75.809 17.297 76.1787C17.2866 76.3614 17.2752 76.5 17.265 76.5997C17.2547 76.7015 17.2476 76.7432 17.2488 76.7359L33.0312 79.3663C33.2695 77.936 33.332 76.2889 33.332 74.6911H17.332ZM17.1729 77.3268C17.2117 76.899 17.2976 76.6396 17.3161 76.5862C17.3363 76.5278 17.3203 76.589 17.2172 76.7824L31.3348 84.3118C32.1064 82.8651 32.9086 80.9592 33.1071 78.7754L17.1729 77.3268ZM17.174 76.8646C17.5428 76.1532 18.0262 75.6458 18.4466 75.3245C18.6458 75.1723 18.8145 75.074 18.9287 75.0151C19.0421 74.9567 19.1098 74.9331 19.1151 74.9312C19.1205 74.9294 19.077 74.9446 18.9741 74.9677C18.8717 74.9906 18.7226 75.0184 18.5203 75.045C18.1093 75.0988 17.5407 75.1391 16.788 75.1391V91.1391C19.2918 91.1391 21.9283 90.8889 24.3489 90.051C26.8293 89.1924 29.692 87.4812 31.378 84.2296L17.174 76.8646ZM16.788 75.1391C16.0071 75.1391 15.4547 75.0865 15.0912 75.026C14.7223 74.9645 14.6423 74.9103 14.7503 74.9591C14.873 75.0144 15.228 75.1996 15.6257 75.6161C16.0433 76.0534 16.3523 76.5842 16.5258 77.1191L1.30622 82.0551C3.85413 89.9112 11.9003 91.1391 16.788 91.1391V75.1391ZM16.4599 76.9245C16.5346 77.1362 16.4865 77.0847 16.4313 76.6061C16.3798 76.1602 16.34 75.5037 16.34 74.5951H0.34C0.34 77.0549 0.520584 79.8371 1.37208 82.2497L16.4599 76.9245ZM16.34 74.5951V21.3151H0.34V74.5951H16.34ZM16.34 21.3151C16.34 19.885 16.3737 19.099 16.4031 18.7754L0.468854 17.3268C0.37027 18.4112 0.34 19.8012 0.34 21.3151H16.34ZM16.3272 19.3663C16.2945 19.5621 16.2587 19.6468 16.274 19.6056C16.2887 19.5659 16.3392 19.4406 16.4548 19.2238L2.33718 11.6944C1.56621 13.14 0.859803 14.8462 0.544848 16.7359L16.3272 19.3663ZM16.498 19.1416C16.1292 19.853 15.6458 20.3604 15.2254 20.6817C15.0262 20.8339 14.8575 20.9322 14.7433 20.9911C14.6299 21.0495 14.5622 21.0732 14.5569 21.075C14.5515 21.0769 14.595 21.0616 14.6979 21.0386C14.8003 21.0156 14.9494 20.9878 15.1517 20.9613C15.5627 20.9074 16.1313 20.8671 16.884 20.8671V4.8671C14.3802 4.8671 11.7437 5.11731 9.32312 5.95522C6.84269 6.81382 3.97995 8.52502 2.29396 11.7766L16.498 19.1416ZM16.884 20.8671H37.428V4.8671H16.884V20.8671ZM37.428 20.8671C40.9724 20.8671 44.7701 22.1165 48.9589 25.3464L58.7291 12.6758C52.2939 7.71372 45.1476 4.8671 37.428 4.8671V20.8671ZM49.0191 25.3924C50.5056 26.5163 51.8989 28.1629 53.0937 30.5985L67.4583 23.5517C65.3251 19.2033 62.4304 15.4739 58.6689 12.6298L49.0191 25.3924ZM37.428 54.8511C41.4412 54.8511 44.9846 53.3448 47.9271 51.1126L38.2569 38.3656C37.8557 38.6699 37.5981 38.7866 37.4889 38.8273C37.3943 38.8625 37.3871 38.8511 37.428 38.8511V54.8511ZM47.9271 51.1126C52.2007 47.8706 53.876 43.137 53.876 38.4031H37.876C37.876 38.9419 37.7872 39.0371 37.8558 38.8809C37.8902 38.8027 37.9489 38.6977 38.0353 38.5884C38.1215 38.4794 38.2041 38.4057 38.2569 38.3656L47.9271 51.1126ZM53.876 38.4031C53.876 33.6692 52.2007 28.9356 47.9271 25.6936L38.2569 38.4406C38.2041 38.4005 38.1215 38.3268 38.0353 38.2178C37.9489 38.1085 37.8902 38.0035 37.8558 37.9253C37.7872 37.7691 37.876 37.8643 37.876 38.4031H53.876ZM48.0632 25.7991C45.0775 23.4312 41.4534 21.8591 37.332 21.8591V37.8591C37.3323 37.8591 37.3308 37.8591 37.3283 37.8589C37.3258 37.8586 37.3247 37.8584 37.3259 37.8586C37.3264 37.8587 37.3486 37.8627 37.3965 37.8811C37.4916 37.9175 37.7353 38.0293 38.1208 38.3351L48.0632 25.7991ZM37.332 21.8591H25.332V37.8591H37.332V21.8591ZM17.332 29.8591V46.8511H33.332V29.8591H17.332ZM25.332 54.8511H37.428V38.8511H25.332V54.8511ZM101.828 38.0191L95.2744 42.6068L107.51 60.0859L109.783 38.8714L101.828 38.0191ZM114.98 33.2191L117.389 25.5904L117.389 25.5904L114.98 33.2191ZM117.476 35.2351L110.227 38.6182L110.317 38.8115L110.417 38.9998L117.476 35.2351ZM118.34 37.8271L110.368 38.4915L110.4 38.8773L110.469 39.2582L118.34 37.8271ZM118.34 78.0511L110.449 76.7359L110.4 77.0299L110.373 77.3268L118.34 78.0511ZM117.572 80.5471L124.616 84.3399L124.725 84.138L124.822 83.9302L117.572 80.5471ZM103.94 81.7951L99.0287 88.1099L99.2214 88.2598L99.4228 88.3976L103.94 81.7951ZM101.924 77.9551L109.872 77.0381L107.451 56.0624L95.3646 73.3757L101.924 77.9551ZM74.6602 75.4591L68.8216 80.9282L74.6602 75.4591ZM74.6602 40.3231L68.8584 34.815L68.8565 34.817L74.6602 40.3231ZM96.3563 33.8911L93.2049 41.2443L93.2049 41.2443L96.3563 33.8911ZM100.1 36.0991L94.4434 41.756L94.578 41.8906L94.7189 42.0186L100.1 36.0991ZM86.8522 63.7471L81.0897 69.2962L81.142 69.3506L81.1954 69.404L86.8522 63.7471ZM98.7563 63.6511L92.8862 58.2158L92.831 58.2755L92.777 58.3362L98.7563 63.6511ZM98.8522 52.1311L92.6704 57.209L92.7236 57.2738L92.7782 57.3374L98.8522 52.1311ZM86.6602 52.1311L80.6927 46.803L80.6389 46.8633L80.5862 46.9248L86.6602 52.1311ZM109.783 38.8714C109.787 38.8294 109.766 39.0841 109.553 39.4774C109.324 39.8985 108.993 40.2627 108.639 40.5137C108.314 40.7436 108.123 40.7719 108.242 40.7423C108.372 40.71 108.736 40.6431 109.412 40.6431V24.6431C106.212 24.6431 102.53 25.2315 99.3858 27.4605C95.9377 29.9048 94.2662 33.5044 93.8738 37.1668L109.783 38.8714ZM109.412 40.6431C110.471 40.6431 111.272 40.6845 111.853 40.7446C112.466 40.808 112.657 40.8747 112.571 40.8478L117.389 25.5904C114.964 24.8246 112.101 24.6431 109.412 24.6431V40.6431ZM112.571 40.8478C112.406 40.7955 111.985 40.6344 111.49 40.2346C110.967 39.8129 110.523 39.2527 110.227 38.6182L124.726 31.852C123.139 28.4525 120.27 26.5002 117.389 25.5904L112.571 40.8478ZM110.417 38.9998C110.502 39.1576 110.509 39.1993 110.487 39.1329C110.465 39.0666 110.397 38.8448 110.368 38.4915L126.313 37.1628C126.129 34.9605 125.364 33.0238 124.535 31.4704L110.417 38.9998ZM110.469 39.2582C110.454 39.1739 110.476 39.2714 110.498 39.6409C110.518 39.9853 110.532 40.4615 110.532 41.0911H126.532C126.532 39.5307 126.474 37.8438 126.211 36.396L110.469 39.2582ZM110.532 41.0911V74.6911H126.532V41.0911H110.532ZM110.532 74.6911C110.532 75.3188 110.518 75.809 110.497 76.1787C110.487 76.3614 110.475 76.5 110.465 76.5997C110.455 76.7015 110.448 76.7432 110.449 76.7359L126.231 79.3663C126.47 77.936 126.532 76.2889 126.532 74.6911H110.532ZM110.373 77.3268C110.388 77.1671 110.409 77.047 110.424 76.9715C110.44 76.8957 110.453 76.8544 110.454 76.8504C110.455 76.8461 110.448 76.8707 110.426 76.9259C110.405 76.9808 110.371 77.0598 110.323 77.164L124.822 83.9302C125.485 82.5081 126.129 80.7388 126.307 78.7754L110.373 77.3268ZM110.528 76.7543C110.838 76.1788 111.241 75.7261 111.641 75.4047C112.022 75.0984 112.325 74.9699 112.423 74.9329C112.516 74.8979 112.461 74.9312 112.192 74.9702C111.928 75.0086 111.523 75.0431 110.948 75.0431V91.0431C114.882 91.0431 121.437 90.2433 124.616 84.3399L110.528 76.7543ZM110.948 75.0431C109.498 75.0431 108.555 74.9526 108.007 74.855C107.743 74.8081 107.662 74.7753 107.714 74.7934C107.758 74.8087 108.05 74.9136 108.458 75.1926L99.4228 88.3976C101.367 89.7275 103.52 90.3076 105.202 90.6072C106.99 90.9256 108.942 91.0431 110.948 91.0431V75.0431ZM108.852 75.4803C109.168 75.726 109.456 76.0642 109.655 76.4444C109.844 76.8039 109.872 77.044 109.872 77.0381L93.977 78.8721C94.3756 82.3269 95.9267 85.6972 99.0287 88.1099L108.852 75.4803ZM95.3646 73.3757C94.9821 73.9236 93.9645 75.0431 90.0202 75.0431V91.0431C97.212 91.0431 104.13 88.7706 108.484 82.5345L95.3646 73.3757ZM90.0202 75.0431C87.2721 75.0431 84.139 73.8761 80.4989 69.99L68.8216 80.9282C74.6535 87.1541 81.7604 91.0431 90.0202 91.0431V75.0431ZM80.4989 69.99C77.0889 66.3497 75.5563 62.426 75.5563 57.8911H59.5563C59.5563 66.6682 62.7596 74.4565 68.8216 80.9282L80.4989 69.99ZM75.5563 57.8911C75.5563 53.2739 77.1006 49.3744 80.464 45.8292L68.8565 34.817C62.7479 41.2558 59.5563 49.0683 59.5563 57.8911H75.5563ZM80.4621 45.8312C84.1144 41.9841 87.3784 40.7391 90.4043 40.7391V24.7391C82.0381 24.7391 74.8061 28.5501 68.8584 34.815L80.4621 45.8312ZM90.4043 40.7391C91.6228 40.7391 92.5183 40.95 93.2049 41.2443L99.5076 26.5379C96.6102 25.2962 93.5377 24.7391 90.4043 24.7391V40.7391ZM93.2049 41.2443C93.8867 41.5365 94.3229 41.7629 94.5724 41.91C94.6921 41.9807 94.735 42.0132 94.7211 42.0029C94.7101 41.9948 94.6031 41.9157 94.4434 41.756L105.757 30.4422C103.933 28.6177 101.513 27.3973 99.5076 26.5379L93.2049 41.2443ZM94.7189 42.0186C95.0752 42.3426 95.2308 42.5445 95.2744 42.6068L108.382 33.4314C107.53 32.2137 106.533 31.1357 105.482 30.1796L94.7189 42.0186ZM76.3562 57.9871C76.3562 62.4541 78.2012 66.2967 81.0897 69.2962L92.6148 58.198C92.3502 57.9232 92.3052 57.7944 92.3207 57.8302C92.3271 57.8449 92.3386 57.8766 92.3472 57.9184C92.3512 57.9377 92.3536 57.9546 92.3549 57.968C92.3563 57.9813 92.3562 57.9881 92.3562 57.9871H76.3562ZM81.1954 69.404C84.3702 72.5788 88.4255 74.2431 92.9003 74.2431V58.2431C92.7783 58.2431 92.7091 58.2326 92.6819 58.2274C92.6561 58.2225 92.6537 58.2198 92.6642 58.2241C92.6746 58.2284 92.6738 58.2298 92.6569 58.2183C92.6388 58.2061 92.5884 58.1696 92.5091 58.0903L81.1954 69.404ZM92.9003 74.2431C97.4901 74.2431 101.64 72.4486 104.736 68.966L92.777 58.3362C92.7335 58.3851 92.7242 58.3865 92.7546 58.364C92.7865 58.3402 92.8378 58.3082 92.9023 58.2797C92.9664 58.2513 93.0136 58.2396 93.0293 58.2365C93.0428 58.2338 93.0045 58.2431 92.9003 58.2431V74.2431ZM104.626 69.0864C107.376 66.1172 109.156 62.3525 109.156 57.9871H93.1562C93.1562 57.9746 93.1579 57.9424 93.1665 57.8997C93.1752 57.8569 93.1861 57.8277 93.1902 57.8179C93.2006 57.7935 93.1494 57.9315 92.8862 58.2158L104.626 69.0864ZM109.156 57.9871C109.156 53.7384 107.549 49.9846 104.926 46.9248L92.7782 57.3374C93.0375 57.6399 93.1165 57.8193 93.1357 57.8681C93.1501 57.9047 93.1562 57.9266 93.1562 57.9871H109.156ZM105.034 47.0532C101.872 43.2038 97.4762 41.4431 92.8043 41.4431V57.4431C92.9779 57.4431 93.066 57.4583 93.085 57.462C93.1012 57.4652 93.0618 57.4588 92.9871 57.4256C92.9108 57.3917 92.832 57.345 92.7629 57.2918C92.6952 57.2395 92.6659 57.2035 92.6704 57.209L105.034 47.0532ZM92.8043 41.4431C88.1303 41.4431 83.8765 43.2371 80.6927 46.803L92.6278 57.4592C92.682 57.3985 92.7043 57.3849 92.6898 57.3956C92.674 57.4073 92.6426 57.4269 92.6028 57.4444C92.5636 57.4615 92.5456 57.4636 92.5639 57.46C92.5844 57.4559 92.6599 57.4431 92.8043 57.4431V41.4431ZM80.5862 46.9248C77.9635 49.9846 76.3562 53.7384 76.3562 57.9871H92.3562C92.3562 57.9266 92.3624 57.9047 92.3768 57.8681C92.396 57.8193 92.475 57.6399 92.7343 57.3374L80.5862 46.9248ZM160.552 33.2191L162.961 25.5904V25.5904L160.552 33.2191ZM163.528 35.2351L157.281 40.2327L157.465 40.4628L157.665 40.6787L163.528 35.2351ZM162.952 46.3711L155.796 42.7934L155.796 42.7934L162.952 46.3711ZM154.312 49.2511L150.734 56.4065L150.819 56.4491L150.905 56.4897L154.312 49.2511ZM145.288 50.3071L140.322 44.0347L140.257 44.0864L140.193 44.1394L145.288 50.3071ZM142.888 78.2431L134.997 76.9279L134.948 77.222L134.921 77.5188L142.888 78.2431ZM142.024 80.7391L148.953 84.7369L149.02 84.6214L149.083 84.5038L142.024 80.7391ZM127.912 81.6031L122.644 87.6237L122.759 87.7246L122.878 87.8211L127.912 81.6031ZM126.184 77.4751H118.184V77.7506L118.203 78.0255L126.184 77.4751ZM126.28 37.7311L118.389 36.4159L118.34 36.7099L118.313 37.0068L126.28 37.7311ZM127.144 35.2351L120.042 31.5526L120.015 31.6048L119.988 31.6574L127.144 35.2351ZM141.832 34.8511L135.131 39.2212L135.184 39.303L135.239 39.3833L141.832 34.8511ZM142.888 38.0191H134.888V62.9828L149.398 42.669L142.888 38.0191ZM144.232 36.3871L138.575 30.7303L138.426 30.879L138.285 31.0354L144.232 36.3871ZM148.168 33.7951L144.321 26.7806V26.7806L148.168 33.7951ZM157.192 32.4511L155.717 40.3141L155.957 40.3591L156.199 40.3893L157.192 32.4511ZM158.143 40.8478C158.061 40.8218 157.905 40.7592 157.721 40.6344C157.535 40.5082 157.385 40.3634 157.281 40.2327L169.775 30.2376C167.978 27.9917 165.629 26.433 162.961 25.5904L158.143 40.8478ZM157.665 40.6787C157.03 39.9942 156.817 39.3707 156.765 39.1868C156.719 39.0219 156.776 39.1309 156.776 39.6511H172.776C172.776 36.856 172.268 32.891 169.39 29.7915L157.665 40.6787ZM156.776 39.6511C156.776 40.1187 156.631 41.1237 155.796 42.7934L170.107 49.9488C171.704 46.7545 172.776 43.2795 172.776 39.6511H156.776ZM155.796 42.7934C155.631 43.124 155.683 42.8633 156.172 42.5253C156.416 42.3567 156.702 42.2173 157.005 42.1268C157.302 42.0379 157.538 42.0191 157.672 42.0191V58.0191C160.317 58.0191 162.946 57.2925 165.267 55.6889C167.517 54.1349 169.056 52.0502 170.107 49.9488L155.796 42.7934ZM157.672 42.0191C157.681 42.0191 157.694 42.0196 157.709 42.0214C157.725 42.0232 157.739 42.0257 157.75 42.0282C157.761 42.0308 157.766 42.0324 157.762 42.0311C157.758 42.0298 157.744 42.0246 157.718 42.0126L150.905 56.4897C153.011 57.4806 155.29 58.0191 157.672 58.0191V42.0191ZM157.889 42.0957C155.333 40.8175 152.576 40.4831 150.184 40.4831V56.4831C150.666 56.4831 150.94 56.5199 151.048 56.5401C151.159 56.5607 151.019 56.5491 150.734 56.4065L157.889 42.0957ZM150.184 40.4831C146.415 40.4831 143.072 41.8575 140.322 44.0347L150.253 56.5795C150.351 56.502 150.417 56.4607 150.449 56.4421C150.481 56.424 150.483 56.4259 150.457 56.4358C150.429 56.4459 150.386 56.4592 150.33 56.4693C150.274 56.4793 150.224 56.4831 150.184 56.4831V40.4831ZM140.193 44.1394C137.1 46.6945 135.08 50.339 135.08 54.7231H151.08C151.08 55.0372 151.002 55.4702 150.787 55.9008C150.583 56.3095 150.37 56.4854 150.383 56.4748L140.193 44.1394ZM135.08 54.7231V74.8831H151.08V54.7231H135.08ZM135.08 74.8831C135.08 75.5108 135.066 76.001 135.045 76.3707C135.034 76.5534 135.023 76.692 135.013 76.7917C135.002 76.8935 134.995 76.9352 134.997 76.9279L150.779 79.5583C151.017 78.128 151.08 76.4809 151.08 74.8831H135.08ZM134.921 77.5188C134.96 77.091 135.045 76.8316 135.064 76.7782C135.084 76.7198 135.068 76.781 134.965 76.9744L149.083 84.5038C149.854 83.0571 150.656 81.1512 150.855 78.9674L134.921 77.5188ZM135.094 76.7413C135.478 76.0765 135.949 75.6222 136.332 75.3457C136.691 75.0865 136.929 75.0126 136.902 75.0216C136.876 75.0302 136.682 75.0895 136.26 75.1433C135.844 75.1963 135.278 75.2351 134.536 75.2351V91.2351C137.004 91.2351 139.585 90.9928 141.962 90.2006C144.376 89.3957 147.185 87.8026 148.953 84.7369L135.094 76.7413ZM134.536 75.2351C133.436 75.2351 132.792 75.134 132.49 75.0594C132.183 74.9838 132.464 74.9952 132.945 75.3851L122.878 87.8211C126.392 90.6657 130.902 91.2351 134.536 91.2351V75.2351ZM133.18 75.5825C133.672 76.0129 133.954 76.4826 134.091 76.81C134.213 77.1009 134.183 77.1861 134.165 76.9247L118.203 78.0255C118.422 81.1989 119.516 84.8866 122.644 87.6237L133.18 75.5825ZM134.184 77.4751C134.184 77.4739 134.184 77.4726 134.184 77.4714C134.184 77.4701 134.184 77.4688 134.184 77.4676C134.184 77.4663 134.184 77.4651 134.184 77.4638C134.184 77.4626 134.184 77.4613 134.184 77.4601C134.184 77.4588 134.184 77.4575 134.184 77.4563C134.184 77.455 134.184 77.4538 134.184 77.4525C134.184 77.4512 134.184 77.45 134.184 77.4487C134.184 77.4474 134.184 77.4462 134.184 77.4449C134.184 77.4436 134.184 77.4424 134.184 77.4411C134.184 77.4398 134.184 77.4386 134.184 77.4373C134.184 77.436 134.184 77.4347 134.184 77.4335C134.184 77.4322 134.184 77.4309 134.184 77.4296C134.184 77.4284 134.184 77.4271 134.184 77.4258C134.184 77.4245 134.184 77.4232 134.184 77.422C134.184 77.4207 134.184 77.4194 134.184 77.4181C134.184 77.4168 134.184 77.4156 134.184 77.4143C134.184 77.413 134.184 77.4117 134.184 77.4104C134.184 77.4091 134.184 77.4078 134.184 77.4065C134.184 77.4053 134.184 77.404 134.184 77.4027C134.184 77.4014 134.184 77.4001 134.184 77.3988C134.184 77.3975 134.184 77.3962 134.184 77.3949C134.184 77.3936 134.184 77.3923 134.184 77.391C134.184 77.3897 134.184 77.3884 134.184 77.3871C134.184 77.3858 134.184 77.3845 134.184 77.3832C134.184 77.3819 134.184 77.3806 134.184 77.3793C134.184 77.378 134.184 77.3767 134.184 77.3754C134.184 77.3741 134.184 77.3728 134.184 77.3715C134.184 77.3701 134.184 77.3688 134.184 77.3675C134.184 77.3662 134.184 77.3649 134.184 77.3636C134.184 77.3623 134.184 77.361 134.184 77.3596C134.184 77.3583 134.184 77.357 134.184 77.3557C134.184 77.3544 134.184 77.3531 134.184 77.3517C134.184 77.3504 134.184 77.3491 134.184 77.3478C134.184 77.3464 134.184 77.3451 134.184 77.3438C134.184 77.3425 134.184 77.3411 134.184 77.3398C134.184 77.3385 134.184 77.3372 134.184 77.3358C134.184 77.3345 134.184 77.3332 134.184 77.3318C134.184 77.3305 134.184 77.3292 134.184 77.3279C134.184 77.3265 134.184 77.3252 134.184 77.3238C134.184 77.3225 134.184 77.3212 134.184 77.3198C134.184 77.3185 134.184 77.3172 134.184 77.3158C134.184 77.3145 134.184 77.3131 134.184 77.3118C134.184 77.3104 134.184 77.3091 134.184 77.3078C134.184 77.3064 134.184 77.3051 134.184 77.3037C134.184 77.3024 134.184 77.301 134.184 77.2997C134.184 77.2983 134.184 77.297 134.184 77.2956C134.184 77.2943 134.184 77.2929 134.184 77.2916C134.184 77.2902 134.184 77.2889 134.184 77.2875C134.184 77.2862 134.184 77.2848 134.184 77.2834C134.184 77.2821 134.184 77.2807 134.184 77.2794C134.184 77.278 134.184 77.2766 134.184 77.2753C134.184 77.2739 134.184 77.2726 134.184 77.2712C134.184 77.2698 134.184 77.2685 134.184 77.2671C134.184 77.2657 134.184 77.2644 134.184 77.263C134.184 77.2616 134.184 77.2603 134.184 77.2589C134.184 77.2575 134.184 77.2561 134.184 77.2548C134.184 77.2534 134.184 77.252 134.184 77.2506C134.184 77.2493 134.184 77.2479 134.184 77.2465C134.184 77.2451 134.184 77.2438 134.184 77.2424C134.184 77.241 134.184 77.2396 134.184 77.2382C134.184 77.2369 134.184 77.2355 134.184 77.2341C134.184 77.2327 134.184 77.2313 134.184 77.2299C134.184 77.2286 134.184 77.2272 134.184 77.2258C134.184 77.2244 134.184 77.223 134.184 77.2216C134.184 77.2202 134.184 77.2188 134.184 77.2174C134.184 77.216 134.184 77.2146 134.184 77.2132C134.184 77.2119 134.184 77.2105 134.184 77.2091C134.184 77.2077 134.184 77.2063 134.184 77.2049C134.184 77.2035 134.184 77.2021 134.184 77.2007C134.184 77.1993 134.184 77.1979 134.184 77.1965C134.184 77.1951 134.184 77.1936 134.184 77.1922C134.184 77.1908 134.184 77.1894 134.184 77.188C134.184 77.1866 134.184 77.1852 134.184 77.1838C134.184 77.1824 134.184 77.181 134.184 77.1796C134.184 77.1781 134.184 77.1767 134.184 77.1753C134.184 77.1739 134.184 77.1725 134.184 77.1711C134.184 77.1697 134.184 77.1682 134.184 77.1668C134.184 77.1654 134.184 77.164 134.184 77.1626C134.184 77.1611 134.184 77.1597 134.184 77.1583C134.184 77.1569 134.184 77.1554 134.184 77.154C134.184 77.1526 134.184 77.1512 134.184 77.1497C134.184 77.1483 134.184 77.1469 134.184 77.1454C134.184 77.144 134.184 77.1426 134.184 77.1412C134.184 77.1397 134.184 77.1383 134.184 77.1368C134.184 77.1354 134.184 77.134 134.184 77.1325C134.184 77.1311 134.184 77.1297 134.184 77.1282C134.184 77.1268 134.184 77.1254 134.184 77.1239C134.184 77.1225 134.184 77.121 134.184 77.1196C134.184 77.1181 134.184 77.1167 134.184 77.1152C134.184 77.1138 134.184 77.1124 134.184 77.1109C134.184 77.1095 134.184 77.108 134.184 77.1066C134.184 77.1051 134.184 77.1037 134.184 77.1022C134.184 77.1008 134.184 77.0993 134.184 77.0979C134.184 77.0964 134.184 77.0949 134.184 77.0935C134.184 77.092 134.184 77.0906 134.184 77.0891C134.184 77.0877 134.184 77.0862 134.184 77.0847C134.184 77.0833 134.184 77.0818 134.184 77.0803C134.184 77.0789 134.184 77.0774 134.184 77.076C134.184 77.0745 134.184 77.073 134.184 77.0716C134.184 77.0701 134.184 77.0686 134.184 77.0671C134.184 77.0657 134.184 77.0642 134.184 77.0627C134.184 77.0613 134.184 77.0598 134.184 77.0583C134.184 77.0568 134.184 77.0554 134.184 77.0539C134.184 77.0524 134.184 77.0509 134.184 77.0495C134.184 77.048 134.184 77.0465 134.184 77.045C134.184 77.0435 134.184 77.0421 134.184 77.0406C134.184 77.0391 134.184 77.0376 134.184 77.0361C134.184 77.0346 134.184 77.0331 134.184 77.0317C134.184 77.0302 134.184 77.0287 134.184 77.0272C134.184 77.0257 134.184 77.0242 134.184 77.0227C134.184 77.0212 134.184 77.0197 134.184 77.0182C134.184 77.0168 134.184 77.0153 134.184 77.0138C134.184 77.0123 134.184 77.0108 134.184 77.0093C134.184 77.0078 134.184 77.0063 134.184 77.0048C134.184 77.0033 134.184 77.0018 134.184 77.0003C134.184 76.9988 134.184 76.9973 134.184 76.9958C134.184 76.9943 134.184 76.9927 134.184 76.9912C134.184 76.9897 134.184 76.9882 134.184 76.9867C134.184 76.9852 134.184 76.9837 134.184 76.9822C134.184 76.9807 134.184 76.9792 134.184 76.9776C134.184 76.9761 134.184 76.9746 134.184 76.9731C134.184 76.9716 134.184 76.9701 134.184 76.9686C134.184 76.967 134.184 76.9655 134.184 76.964C134.184 76.9625 134.184 76.961 134.184 76.9594C134.184 76.9579 134.184 76.9564 134.184 76.9549C134.184 76.9533 134.184 76.9518 134.184 76.9503C134.184 76.9488 134.184 76.9472 134.184 76.9457C134.184 76.9442 134.184 76.9426 134.184 76.9411C134.184 76.9396 134.184 76.938 134.184 76.9365C134.184 76.935 134.184 76.9334 134.184 76.9319C134.184 76.9304 134.184 76.9288 134.184 76.9273C134.184 76.9258 134.184 76.9242 134.184 76.9227C134.184 76.9211 134.184 76.9196 134.184 76.9181C134.184 76.9165 134.184 76.915 134.184 76.9134C134.184 76.9119 134.184 76.9103 134.184 76.9088C134.184 76.9072 134.184 76.9057 134.184 76.9041C134.184 76.9026 134.184 76.901 134.184 76.8995C134.184 76.8979 134.184 76.8964 134.184 76.8948C134.184 76.8933 134.184 76.8917 134.184 76.8902C134.184 76.8886 134.184 76.8871 134.184 76.8855C134.184 76.8839 134.184 76.8824 134.184 76.8808C134.184 76.8793 134.184 76.8777 134.184 76.8762C134.184 76.8746 134.184 76.873 134.184 76.8715C134.184 76.8699 134.184 76.8683 134.184 76.8668C134.184 76.8652 134.184 76.8636 134.184 76.8621C134.184 76.8605 134.184 76.8589 134.184 76.8574C134.184 76.8558 134.184 76.8542 134.184 76.8526C134.184 76.8511 134.184 76.8495 134.184 76.8479C134.184 76.8463 134.184 76.8448 134.184 76.8432C134.184 76.8416 134.184 76.84 134.184 76.8384C134.184 76.8369 134.184 76.8353 134.184 76.8337C134.184 76.8321 134.184 76.8305 134.184 76.829C134.184 76.8274 134.184 76.8258 134.184 76.8242C134.184 76.8226 134.184 76.821 134.184 76.8194C134.184 76.8179 134.184 76.8163 134.184 76.8147C134.184 76.8131 134.184 76.8115 134.184 76.8099C134.184 76.8083 134.184 76.8067 134.184 76.8051C134.184 76.8035 134.184 76.8019 134.184 76.8003C134.184 76.7987 134.184 76.7971 134.184 76.7955C134.184 76.7939 134.184 76.7923 134.184 76.7907C134.184 76.7891 134.184 76.7875 134.184 76.7859C134.184 76.7843 134.184 76.7827 134.184 76.7811C134.184 76.7795 134.184 76.7779 134.184 76.7763C134.184 76.7747 134.184 76.7731 134.184 76.7715C134.184 76.7699 134.184 76.7682 134.184 76.7666C134.184 76.765 134.184 76.7634 134.184 76.7618C134.184 76.7602 134.184 76.7586 134.184 76.7569C134.184 76.7553 134.184 76.7537 134.184 76.7521C134.184 76.7505 134.184 76.7488 134.184 76.7472C134.184 76.7456 134.184 76.744 134.184 76.7424C134.184 76.7407 134.184 76.7391 134.184 76.7375C134.184 76.7359 134.184 76.7342 134.184 76.7326C134.184 76.731 134.184 76.7293 134.184 76.7277C134.184 76.7261 134.184 76.7245 134.184 76.7228C134.184 76.7212 134.184 76.7196 134.184 76.7179C134.184 76.7163 134.184 76.7147 134.184 76.713C134.184 76.7114 134.184 76.7097 134.184 76.7081C134.184 76.7065 134.184 76.7048 134.184 76.7032C134.184 76.7015 134.184 76.6999 134.184 76.6982C134.184 76.6966 134.184 76.695 134.184 76.6933C134.184 76.6917 134.184 76.69 134.184 76.6884C134.184 76.6867 134.184 76.6851 134.184 76.6834C134.184 76.6818 134.184 76.6801 134.184 76.6785C134.184 76.6768 134.184 76.6752 134.184 76.6735C134.184 76.6719 134.184 76.6702 134.184 76.6686C134.184 76.6669 134.184 76.6652 134.184 76.6636C134.184 76.6619 134.184 76.6603 134.184 76.6586C134.184 76.6569 134.184 76.6553 134.184 76.6536C134.184 76.652 134.184 76.6503 134.184 76.6486C134.184 76.647 134.184 76.6453 134.184 76.6436C134.184 76.642 134.184 76.6403 134.184 76.6386C134.184 76.6369 134.184 76.6353 134.184 76.6336C134.184 76.6319 134.184 76.6303 134.184 76.6286C134.184 76.6269 134.184 76.6252 134.184 76.6236C134.184 76.6219 134.184 76.6202 134.184 76.6185C134.184 76.6169 134.184 76.6152 134.184 76.6135C134.184 76.6118 134.184 76.6101 134.184 76.6084C134.184 76.6068 134.184 76.6051 134.184 76.6034C134.184 76.6017 134.184 76.6 134.184 76.5983C134.184 76.5966 134.184 76.595 134.184 76.5933C134.184 76.5916 134.184 76.5899 134.184 76.5882C134.184 76.5865 134.184 76.5848 134.184 76.5831C134.184 76.5814 134.184 76.5797 134.184 76.578C134.184 76.5763 134.184 76.5746 134.184 76.5729C134.184 76.5712 134.184 76.5695 134.184 76.5678C134.184 76.5661 134.184 76.5644 134.184 76.5627C134.184 76.561 134.184 76.5593 134.184 76.5576C134.184 76.5559 134.184 76.5542 134.184 76.5525C134.184 76.5508 134.184 76.5491 134.184 76.5474C134.184 76.5457 134.184 76.544 134.184 76.5423C134.184 76.5406 134.184 76.5388 134.184 76.5371C134.184 76.5354 134.184 76.5337 134.184 76.532C134.184 76.5303 134.184 76.5285 134.184 76.5268C134.184 76.5251 134.184 76.5234 134.184 76.5217C134.184 76.52 134.184 76.5182 134.184 76.5165C134.184 76.5148 134.184 76.5131 134.184 76.5113C134.184 76.5096 134.184 76.5079 134.184 76.5062C134.184 76.5044 134.184 76.5027 134.184 76.501C134.184 76.4992 134.184 76.4975 134.184 76.4958C134.184 76.494 134.184 76.4923 134.184 76.4906C134.184 76.4889 134.184 76.4871 134.184 76.4854C134.184 76.4837 134.184 76.4819 134.184 76.4802C134.184 76.4784 134.184 76.4767 134.184 76.475C134.184 76.4732 134.184 76.4715 134.184 76.4697C134.184 76.468 134.184 76.4662 134.184 76.4645C134.184 76.4628 134.184 76.461 134.184 76.4593C134.184 76.4575 134.184 76.4558 134.184 76.454C134.184 76.4523 134.184 76.4505 134.184 76.4488C134.184 76.447 134.184 76.4453 134.184 76.4435C134.184 76.4418 134.184 76.44 134.184 76.4383C134.184 76.4365 134.184 76.4347 134.184 76.433C134.184 76.4312 134.184 76.4295 134.184 76.4277C134.184 76.4259 134.184 76.4242 134.184 76.4224C134.184 76.4207 134.184 76.4189 134.184 76.4171C134.184 76.4154 134.184 76.4136 134.184 76.4118C134.184 76.4101 134.184 76.4083 134.184 76.4065C134.184 76.4048 134.184 76.403 134.184 76.4012C134.184 76.3995 134.184 76.3977 134.184 76.3959C134.184 76.3941 134.184 76.3924 134.184 76.3906C134.184 76.3888 134.184 76.387 134.184 76.3853C134.184 76.3835 134.184 76.3817 134.184 76.3799C134.184 76.3782 134.184 76.3764 134.184 76.3746C134.184 76.3728 134.184 76.371 134.184 76.3692C134.184 76.3675 134.184 76.3657 134.184 76.3639C134.184 76.3621 134.184 76.3603 134.184 76.3585C134.184 76.3567 134.184 76.3549 134.184 76.3531C134.184 76.3514 134.184 76.3496 134.184 76.3478C134.184 76.346 134.184 76.3442 134.184 76.3424C134.184 76.3406 134.184 76.3388 134.184 76.337C134.184 76.3352 134.184 76.3334 134.184 76.3316C134.184 76.3298 134.184 76.328 134.184 76.3262C134.184 76.3244 134.184 76.3226 134.184 76.3208C134.184 76.319 134.184 76.3172 134.184 76.3154C134.184 76.3136 134.184 76.3118 134.184 76.31C134.184 76.3082 134.184 76.3064 134.184 76.3045C134.184 76.3027 134.184 76.3009 134.184 76.2991C134.184 76.2973 134.184 76.2955 134.184 76.2937C134.184 76.2919 134.184 76.29 134.184 76.2882C134.184 76.2864 134.184 76.2846 134.184 76.2828C134.184 76.2809 134.184 76.2791 134.184 76.2773C134.184 76.2755 134.184 76.2737 134.184 76.2718C134.184 76.27 134.184 76.2682 134.184 76.2664C134.184 76.2645 134.184 76.2627 134.184 76.2609C134.184 76.2591 134.184 76.2572 134.184 76.2554C134.184 76.2536 134.184 76.2517 134.184 76.2499C134.184 76.2481 134.184 76.2462 134.184 76.2444C134.184 76.2426 134.184 76.2407 134.184 76.2389C134.184 76.2371 134.184 76.2352 134.184 76.2334C134.184 76.2315 134.184 76.2297 134.184 76.2279C134.184 76.226 134.184 76.2242 134.184 76.2223C134.184 76.2205 134.184 76.2187 134.184 76.2168C134.184 76.215 134.184 76.2131 134.184 76.2113C134.184 76.2094 134.184 76.2076 134.184 76.2057C134.184 76.2039 134.184 76.202 134.184 76.2002C134.184 76.1983 134.184 76.1965 134.184 76.1946C134.184 76.1927 134.184 76.1909 134.184 76.189C134.184 76.1872 134.184 76.1853 134.184 76.1835C134.184 76.1816 134.184 76.1797 134.184 76.1779C134.184 76.176 134.184 76.1742 134.184 76.1723C134.184 76.1704 134.184 76.1686 134.184 76.1667C134.184 76.1648 134.184 76.163 134.184 76.1611C134.184 76.1592 134.184 76.1574 134.184 76.1555C134.184 76.1536 134.184 76.1518 134.184 76.1499C134.184 76.148 134.184 76.1461 134.184 76.1443C134.184 76.1424 134.184 76.1405 134.184 76.1386C134.184 76.1368 134.184 76.1349 134.184 76.133C134.184 76.1311 134.184 76.1293 134.184 76.1274C134.184 76.1255 134.184 76.1236 134.184 76.1217C134.184 76.1199 134.184 76.118 134.184 76.1161C134.184 76.1142 134.184 76.1123 134.184 76.1104C134.184 76.1085 134.184 76.1066 134.184 76.1048C134.184 76.1029 134.184 76.101 134.184 76.0991C134.184 76.0972 134.184 76.0953 134.184 76.0934C134.184 76.0915 134.184 76.0896 134.184 76.0877C134.184 76.0858 134.184 76.0839 134.184 76.082C134.184 76.0801 134.184 76.0782 134.184 76.0763C134.184 76.0744 134.184 76.0725 134.184 76.0706C134.184 76.0687 134.184 76.0668 134.184 76.0649C134.184 76.063 134.184 76.0611 134.184 76.0592C134.184 76.0573 134.184 76.0554 134.184 76.0535C134.184 76.0516 134.184 76.0497 134.184 76.0477C134.184 76.0458 134.184 76.0439 134.184 76.042C134.184 76.0401 134.184 76.0382 134.184 76.0363C134.184 76.0343 134.184 76.0324 134.184 76.0305C134.184 76.0286 134.184 76.0267 134.184 76.0248C134.184 76.0228 134.184 76.0209 134.184 76.019C134.184 76.0171 134.184 76.0151 134.184 76.0132C134.184 76.0113 134.184 76.0094 134.184 76.0074C134.184 76.0055 134.184 76.0036 134.184 76.0017C134.184 75.9997 134.184 75.9978 134.184 75.9959C134.184 75.9939 134.184 75.992 134.184 75.9901C134.184 75.9881 134.184 75.9862 134.184 75.9843C134.184 75.9823 134.184 75.9804 134.184 75.9785C134.184 75.9765 134.184 75.9746 134.184 75.9726C134.184 75.9707 134.184 75.9688 134.184 75.9668C134.184 75.9649 134.184 75.9629 134.184 75.961C134.184 75.959 134.184 75.9571 134.184 75.9552C134.184 75.9532 134.184 75.9513 134.184 75.9493C134.184 75.9474 134.184 75.9454 134.184 75.9435C134.184 75.9415 134.184 75.9396 134.184 75.9376C134.184 75.9357 134.184 75.9337 134.184 75.9317C134.184 75.9298 134.184 75.9278 134.184 75.9259C134.184 75.9239 134.184 75.922 134.184 75.92C134.184 75.918 134.184 75.9161 134.184 75.9141C134.184 75.9122 134.184 75.9102 134.184 75.9082C134.184 75.9063 134.184 75.9043 134.184 75.9023C134.184 75.9004 134.184 75.8984 134.184 75.8964C134.184 75.8945 134.184 75.8925 134.184 75.8905C134.184 75.8885 134.184 75.8866 134.184 75.8846C134.184 75.8826 134.184 75.8807 134.184 75.8787C134.184 75.8767 134.184 75.8747 134.184 75.8728C134.184 75.8708 134.184 75.8688 134.184 75.8668C134.184 75.8648 134.184 75.8629 134.184 75.8609C134.184 75.8589 134.184 75.8569 134.184 75.8549C134.184 75.8529 134.184 75.851 134.184 75.849C134.184 75.847 134.184 75.845 134.184 75.843C134.184 75.841 134.184 75.839 134.184 75.837C134.184 75.8351 134.184 75.8331 134.184 75.8311C134.184 75.8291 134.184 75.8271 134.184 75.8251C134.184 75.8231 134.184 75.8211 134.184 75.8191C134.184 75.8171 134.184 75.8151 134.184 75.8131C134.184 75.8111 134.184 75.8091 134.184 75.8071C134.184 75.8051 134.184 75.8031 134.184 75.8011C134.184 75.7991 134.184 75.7971 134.184 75.7951C134.184 75.7931 134.184 75.7911 134.184 75.7891C134.184 75.7871 134.184 75.785 134.184 75.783C134.184 75.781 134.184 75.779 134.184 75.777C134.184 75.775 134.184 75.773 134.184 75.771C134.184 75.7689 134.184 75.7669 134.184 75.7649C134.184 75.7629 134.184 75.7609 134.184 75.7589C134.184 75.7568 134.184 75.7548 134.184 75.7528C134.184 75.7508 134.184 75.7488 134.184 75.7467C134.184 75.7447 134.184 75.7427 134.184 75.7407C134.184 75.7386 134.184 75.7366 134.184 75.7346C134.184 75.7326 134.184 75.7305 134.184 75.7285C134.184 75.7265 134.184 75.7244 134.184 75.7224C134.184 75.7204 134.184 75.7183 134.184 75.7163C134.184 75.7143 134.184 75.7122 134.184 75.7102C134.184 75.7082 134.184 75.7061 134.184 75.7041C134.184 75.702 134.184 75.7 134.184 75.698C134.184 75.6959 134.184 75.6939 134.184 75.6918C134.184 75.6898 134.184 75.6877 134.184 75.6857C134.184 75.6837 134.184 75.6816 134.184 75.6796C134.184 75.6775 134.184 75.6755 134.184 75.6734C134.184 75.6714 134.184 75.6693 134.184 75.6673C134.184 75.6652 134.184 75.6632 134.184 75.6611C134.184 75.659 134.184 75.657 134.184 75.6549C134.184 75.6529 134.184 75.6508 134.184 75.6488C134.184 75.6467 134.184 75.6446 134.184 75.6426C134.184 75.6405 134.184 75.6385 134.184 75.6364C134.184 75.6343 134.184 75.6323 134.184 75.6302C134.184 75.6281 134.184 75.6261 134.184 75.624C134.184 75.6219 134.184 75.6199 134.184 75.6178C134.184 75.6157 134.184 75.6137 134.184 75.6116C134.184 75.6095 134.184 75.6074 134.184 75.6054C134.184 75.6033 134.184 75.6012 134.184 75.5991C134.184 75.5971 134.184 75.595 134.184 75.5929C134.184 75.5908 134.184 75.5888 134.184 75.5867C134.184 75.5846 134.184 75.5825 134.184 75.5804C134.184 75.5783 134.184 75.5763 134.184 75.5742C134.184 75.5721 134.184 75.57 134.184 75.5679C134.184 75.5658 134.184 75.5637 134.184 75.5617C134.184 75.5596 134.184 75.5575 134.184 75.5554C134.184 75.5533 134.184 75.5512 134.184 75.5491C134.184 75.547 134.184 75.5449 134.184 75.5428C134.184 75.5407 134.184 75.5386 134.184 75.5365C134.184 75.5344 134.184 75.5323 134.184 75.5302C134.184 75.5281 134.184 75.526 134.184 75.5239C134.184 75.5218 134.184 75.5197 134.184 75.5176C134.184 75.5155 134.184 75.5134 134.184 75.5113C134.184 75.5092 134.184 75.5071 134.184 75.505C134.184 75.5029 134.184 75.5008 134.184 75.4986C134.184 75.4965 134.184 75.4944 134.184 75.4923C134.184 75.4902 134.184 75.4881 134.184 75.486C134.184 75.4838 134.184 75.4817 134.184 75.4796C134.184 75.4775 134.184 75.4754 134.184 75.4733C134.184 75.4711 134.184 75.469 134.184 75.4669C134.184 75.4648 134.184 75.4626 134.184 75.4605C134.184 75.4584 134.184 75.4563 134.184 75.4541C134.184 75.452 134.184 75.4499 134.184 75.4478C134.184 75.4456 134.184 75.4435 134.184 75.4414C134.184 75.4392 134.184 75.4371 134.184 75.435C134.184 75.4328 134.184 75.4307 134.184 75.4286C134.184 75.4264 134.184 75.4243 134.184 75.4222C134.184 75.42 134.184 75.4179 134.184 75.4157C134.184 75.4136 134.184 75.4115 134.184 75.4093C134.184 75.4072 134.184 75.405 134.184 75.4029C134.184 75.4007 134.184 75.3986 134.184 75.3965C134.184 75.3943 134.184 75.3922 134.184 75.39C134.184 75.3879 134.184 75.3857 134.184 75.3836C134.184 75.3814 134.184 75.3793 134.184 75.3771C134.184 75.375 134.184 75.3728 134.184 75.3707C134.184 75.3685 134.184 75.3663 134.184 75.3642C134.184 75.362 134.184 75.3599 134.184 75.3577C134.184 75.3555 134.184 75.3534 134.184 75.3512C134.184 75.3491 134.184 75.3469 134.184 75.3447C134.184 75.3426 134.184 75.3404 134.184 75.3382C134.184 75.3361 134.184 75.3339 134.184 75.3317C134.184 75.3296 134.184 75.3274 134.184 75.3252C134.184 75.3231 134.184 75.3209 134.184 75.3187C134.184 75.3165 134.184 75.3144 134.184 75.3122C134.184 75.31 134.184 75.3078 134.184 75.3057C134.184 75.3035 134.184 75.3013 134.184 75.2991C134.184 75.2969 134.184 75.2948 134.184 75.2926C134.184 75.2904 134.184 75.2882 134.184 75.286C134.184 75.2839 134.184 75.2817 134.184 75.2795C134.184 75.2773 134.184 75.2751 134.184 75.2729C134.184 75.2707 134.184 75.2685 134.184 75.2663C134.184 75.2642 134.184 75.262 134.184 75.2598C134.184 75.2576 134.184 75.2554 134.184 75.2532C134.184 75.251 134.184 75.2488 134.184 75.2466C134.184 75.2444 134.184 75.2422 134.184 75.24C134.184 75.2378 134.184 75.2356 134.184 75.2334C134.184 75.2312 134.184 75.229 134.184 75.2268C134.184 75.2246 134.184 75.2224 134.184 75.2202C134.184 75.218 134.184 75.2158 134.184 75.2136C134.184 75.2114 134.184 75.2092 134.184 75.2069C134.184 75.2047 134.184 75.2025 134.184 75.2003C134.184 75.1981 134.184 75.1959 134.184 75.1937C134.184 75.1915 134.184 75.1892 134.184 75.187C134.184 75.1848 134.184 75.1826 134.184 75.1804C134.184 75.1781 134.184 75.1759 134.184 75.1737C134.184 75.1715 134.184 75.1693 134.184 75.167C134.184 75.1648 134.184 75.1626 134.184 75.1604C134.184 75.1581 134.184 75.1559 134.184 75.1537C134.184 75.1515 134.184 75.1492 134.184 75.147C134.184 75.1448 134.184 75.1425 134.184 75.1403C134.184 75.1381 134.184 75.1358 134.184 75.1336C134.184 75.1314 134.184 75.1291 134.184 75.1269C134.184 75.1247 134.184 75.1224 134.184 75.1202C134.184 75.118 134.184 75.1157 134.184 75.1135C134.184 75.1112 134.184 75.109 134.184 75.1067C134.184 75.1045 134.184 75.1023 134.184 75.1C134.184 75.0978 134.184 75.0955 134.184 75.0933C134.184 75.091 134.184 75.0888 134.184 75.0865C134.184 75.0843 134.184 75.082 134.184 75.0798C134.184 75.0775 134.184 75.0753 134.184 75.073C134.184 75.0708 134.184 75.0685 134.184 75.0662C134.184 75.064 134.184 75.0617 134.184 75.0595C134.184 75.0572 134.184 75.055 134.184 75.0527C134.184 75.0504 134.184 75.0482 134.184 75.0459C134.184 75.0436 134.184 75.0414 134.184 75.0391C134.184 75.0368 134.184 75.0346 134.184 75.0323C134.184 75.0301 134.184 75.0278 134.184 75.0255C134.184 75.0232 134.184 75.021 134.184 75.0187C134.184 75.0164 134.184 75.0142 134.184 75.0119C134.184 75.0096 134.184 75.0073 134.184 75.0051C134.184 75.0028 134.184 75.0005 134.184 74.9982C134.184 74.9959 134.184 74.9937 134.184 74.9914C134.184 74.9891 134.184 74.9868 134.184 74.9845C134.184 74.9823 134.184 74.98 134.184 74.9777C134.184 74.9754 134.184 74.9731 134.184 74.9708C134.184 74.9685 134.184 74.9663 134.184 74.964C134.184 74.9617 134.184 74.9594 134.184 74.9571C134.184 74.9548 134.184 74.9525 134.184 74.9502C134.184 74.9479 134.184 74.9456 134.184 74.9433C134.184 74.941 134.184 74.9387 134.184 74.9364C134.184 74.9341 134.184 74.9318 134.184 74.9296C134.184 74.9272 134.184 74.9249 134.184 74.9226C134.184 74.9203 134.184 74.918 134.184 74.9157C134.184 74.9134 134.184 74.9111 134.184 74.9088C134.184 74.9065 134.184 74.9042 134.184 74.9019C134.184 74.8996 134.184 74.8973 134.184 74.895C134.184 74.8926 134.184 74.8903 134.184 74.888C134.184 74.8857 134.184 74.8834 134.184 74.8811C134.184 74.8788 134.184 74.8764 134.184 74.8741C134.184 74.8718 134.184 74.8695 134.184 74.8672C134.184 74.8649 134.184 74.8625 134.184 74.8602C134.184 74.8579 134.184 74.8556 134.184 74.8532C134.184 74.8509 134.184 74.8486 134.184 74.8463C134.184 74.8439 134.184 74.8416 134.184 74.8393C134.184 74.837 134.184 74.8346 134.184 74.8323C134.184 74.83 134.184 74.8276 134.184 74.8253C134.184 74.823 134.184 74.8206 134.184 74.8183C134.184 74.816 134.184 74.8136 134.184 74.8113C134.184 74.8089 134.184 74.8066 134.184 74.8043C134.184 74.8019 134.184 74.7996 134.184 74.7972C134.184 74.7949 134.184 74.7926 134.184 74.7902C134.184 74.7879 134.184 74.7855 134.184 74.7832C134.184 74.7808 134.184 74.7785 134.184 74.7761C134.184 74.7738 134.184 74.7714 134.184 74.7691C134.184 74.7667 134.184 74.7644 134.184 74.762C134.184 74.7597 134.184 74.7573 134.184 74.755C134.184 74.7526 134.184 74.7503 134.184 74.7479C134.184 74.7455 134.184 74.7432 134.184 74.7408C134.184 74.7385 134.184 74.7361 134.184 74.7337C134.184 74.7314 134.184 74.729 134.184 74.7266C134.184 74.7243 134.184 74.7219 134.184 74.7196C134.184 74.7172 134.184 74.7148 134.184 74.7125C134.184 74.7101 134.184 74.7077 134.184 74.7053C134.184 74.703 134.184 74.7006 134.184 74.6982C134.184 74.6959 134.184 74.6935 134.184 74.6911H118.184C118.184 74.6935 118.184 74.6959 118.184 74.6982C118.184 74.7006 118.184 74.703 118.184 74.7053C118.184 74.7077 118.184 74.7101 118.184 74.7125C118.184 74.7148 118.184 74.7172 118.184 74.7196C118.184 74.7219 118.184 74.7243 118.184 74.7266C118.184 74.729 118.184 74.7314 118.184 74.7337C118.184 74.7361 118.184 74.7385 118.184 74.7408C118.184 74.7432 118.184 74.7455 118.184 74.7479C118.184 74.7503 118.184 74.7526 118.184 74.755C118.184 74.7573 118.184 74.7597 118.184 74.762C118.184 74.7644 118.184 74.7667 118.184 74.7691C118.184 74.7714 118.184 74.7738 118.184 74.7761C118.184 74.7785 118.184 74.7808 118.184 74.7832C118.184 74.7855 118.184 74.7879 118.184 74.7902C118.184 74.7926 118.184 74.7949 118.184 74.7972C118.184 74.7996 118.184 74.8019 118.184 74.8043C118.184 74.8066 118.184 74.8089 118.184 74.8113C118.184 74.8136 118.184 74.816 118.184 74.8183C118.184 74.8206 118.184 74.823 118.184 74.8253C118.184 74.8276 118.184 74.83 118.184 74.8323C118.184 74.8346 118.184 74.837 118.184 74.8393C118.184 74.8416 118.184 74.8439 118.184 74.8463C118.184 74.8486 118.184 74.8509 118.184 74.8532C118.184 74.8556 118.184 74.8579 118.184 74.8602C118.184 74.8625 118.184 74.8649 118.184 74.8672C118.184 74.8695 118.184 74.8718 118.184 74.8741C118.184 74.8764 118.184 74.8788 118.184 74.8811C118.184 74.8834 118.184 74.8857 118.184 74.888C118.184 74.8903 118.184 74.8926 118.184 74.895C118.184 74.8973 118.184 74.8996 118.184 74.9019C118.184 74.9042 118.184 74.9065 118.184 74.9088C118.184 74.9111 118.184 74.9134 118.184 74.9157C118.184 74.918 118.184 74.9203 118.184 74.9226C118.184 74.9249 118.184 74.9272 118.184 74.9296C118.184 74.9318 118.184 74.9341 118.184 74.9364C118.184 74.9387 118.184 74.941 118.184 74.9433C118.184 74.9456 118.184 74.9479 118.184 74.9502C118.184 74.9525 118.184 74.9548 118.184 74.9571C118.184 74.9594 118.184 74.9617 118.184 74.964C118.184 74.9663 118.184 74.9685 118.184 74.9708C118.184 74.9731 118.184 74.9754 118.184 74.9777C118.184 74.98 118.184 74.9823 118.184 74.9845C118.184 74.9868 118.184 74.9891 118.184 74.9914C118.184 74.9937 118.184 74.9959 118.184 74.9982C118.184 75.0005 118.184 75.0028 118.184 75.0051C118.184 75.0073 118.184 75.0096 118.184 75.0119C118.184 75.0142 118.184 75.0164 118.184 75.0187C118.184 75.021 118.184 75.0232 118.184 75.0255C118.184 75.0278 118.184 75.0301 118.184 75.0323C118.184 75.0346 118.184 75.0368 118.184 75.0391C118.184 75.0414 118.184 75.0436 118.184 75.0459C118.184 75.0482 118.184 75.0504 118.184 75.0527C118.184 75.055 118.184 75.0572 118.184 75.0595C118.184 75.0617 118.184 75.064 118.184 75.0662C118.184 75.0685 118.184 75.0708 118.184 75.073C118.184 75.0753 118.184 75.0775 118.184 75.0798C118.184 75.082 118.184 75.0843 118.184 75.0865C118.184 75.0888 118.184 75.091 118.184 75.0933C118.184 75.0955 118.184 75.0978 118.184 75.1C118.184 75.1023 118.184 75.1045 118.184 75.1067C118.184 75.109 118.184 75.1112 118.184 75.1135C118.184 75.1157 118.184 75.118 118.184 75.1202C118.184 75.1224 118.184 75.1247 118.184 75.1269C118.184 75.1291 118.184 75.1314 118.184 75.1336C118.184 75.1358 118.184 75.1381 118.184 75.1403C118.184 75.1425 118.184 75.1448 118.184 75.147C118.184 75.1492 118.184 75.1515 118.184 75.1537C118.184 75.1559 118.184 75.1581 118.184 75.1604C118.184 75.1626 118.184 75.1648 118.184 75.167C118.184 75.1693 118.184 75.1715 118.184 75.1737C118.184 75.1759 118.184 75.1781 118.184 75.1804C118.184 75.1826 118.184 75.1848 118.184 75.187C118.184 75.1892 118.184 75.1915 118.184 75.1937C118.184 75.1959 118.184 75.1981 118.184 75.2003C118.184 75.2025 118.184 75.2047 118.184 75.2069C118.184 75.2092 118.184 75.2114 118.184 75.2136C118.184 75.2158 118.184 75.218 118.184 75.2202C118.184 75.2224 118.184 75.2246 118.184 75.2268C118.184 75.229 118.184 75.2312 118.184 75.2334C118.184 75.2356 118.184 75.2378 118.184 75.24C118.184 75.2422 118.184 75.2444 118.184 75.2466C118.184 75.2488 118.184 75.251 118.184 75.2532C118.184 75.2554 118.184 75.2576 118.184 75.2598C118.184 75.262 118.184 75.2642 118.184 75.2663C118.184 75.2685 118.184 75.2707 118.184 75.2729C118.184 75.2751 118.184 75.2773 118.184 75.2795C118.184 75.2817 118.184 75.2839 118.184 75.286C118.184 75.2882 118.184 75.2904 118.184 75.2926C118.184 75.2948 118.184 75.2969 118.184 75.2991C118.184 75.3013 118.184 75.3035 118.184 75.3057C118.184 75.3078 118.184 75.31 118.184 75.3122C118.184 75.3144 118.184 75.3165 118.184 75.3187C118.184 75.3209 118.184 75.3231 118.184 75.3252C118.184 75.3274 118.184 75.3296 118.184 75.3317C118.184 75.3339 118.184 75.3361 118.184 75.3382C118.184 75.3404 118.184 75.3426 118.184 75.3447C118.184 75.3469 118.184 75.3491 118.184 75.3512C118.184 75.3534 118.184 75.3555 118.184 75.3577C118.184 75.3599 118.184 75.362 118.184 75.3642C118.184 75.3663 118.184 75.3685 118.184 75.3707C118.184 75.3728 118.184 75.375 118.184 75.3771C118.184 75.3793 118.184 75.3814 118.184 75.3836C118.184 75.3857 118.184 75.3879 118.184 75.39C118.184 75.3922 118.184 75.3943 118.184 75.3965C118.184 75.3986 118.184 75.4007 118.184 75.4029C118.184 75.405 118.184 75.4072 118.184 75.4093C118.184 75.4115 118.184 75.4136 118.184 75.4157C118.184 75.4179 118.184 75.42 118.184 75.4222C118.184 75.4243 118.184 75.4264 118.184 75.4286C118.184 75.4307 118.184 75.4328 118.184 75.435C118.184 75.4371 118.184 75.4392 118.184 75.4414C118.184 75.4435 118.184 75.4456 118.184 75.4478C118.184 75.4499 118.184 75.452 118.184 75.4541C118.184 75.4563 118.184 75.4584 118.184 75.4605C118.184 75.4626 118.184 75.4648 118.184 75.4669C118.184 75.469 118.184 75.4711 118.184 75.4733C118.184 75.4754 118.184 75.4775 118.184 75.4796C118.184 75.4817 118.184 75.4838 118.184 75.486C118.184 75.4881 118.184 75.4902 118.184 75.4923C118.184 75.4944 118.184 75.4965 118.184 75.4986C118.184 75.5008 118.184 75.5029 118.184 75.505C118.184 75.5071 118.184 75.5092 118.184 75.5113C118.184 75.5134 118.184 75.5155 118.184 75.5176C118.184 75.5197 118.184 75.5218 118.184 75.5239C118.184 75.526 118.184 75.5281 118.184 75.5302C118.184 75.5323 118.184 75.5344 118.184 75.5365C118.184 75.5386 118.184 75.5407 118.184 75.5428C118.184 75.5449 118.184 75.547 118.184 75.5491C118.184 75.5512 118.184 75.5533 118.184 75.5554C118.184 75.5575 118.184 75.5596 118.184 75.5617C118.184 75.5637 118.184 75.5658 118.184 75.5679C118.184 75.57 118.184 75.5721 118.184 75.5742C118.184 75.5763 118.184 75.5783 118.184 75.5804C118.184 75.5825 118.184 75.5846 118.184 75.5867C118.184 75.5888 118.184 75.5908 118.184 75.5929C118.184 75.595 118.184 75.5971 118.184 75.5991C118.184 75.6012 118.184 75.6033 118.184 75.6054C118.184 75.6074 118.184 75.6095 118.184 75.6116C118.184 75.6137 118.184 75.6157 118.184 75.6178C118.184 75.6199 118.184 75.6219 118.184 75.624C118.184 75.6261 118.184 75.6281 118.184 75.6302C118.184 75.6323 118.184 75.6343 118.184 75.6364C118.184 75.6385 118.184 75.6405 118.184 75.6426C118.184 75.6446 118.184 75.6467 118.184 75.6488C118.184 75.6508 118.184 75.6529 118.184 75.6549C118.184 75.657 118.184 75.659 118.184 75.6611C118.184 75.6632 118.184 75.6652 118.184 75.6673C118.184 75.6693 118.184 75.6714 118.184 75.6734C118.184 75.6755 118.184 75.6775 118.184 75.6796C118.184 75.6816 118.184 75.6837 118.184 75.6857C118.184 75.6877 118.184 75.6898 118.184 75.6918C118.184 75.6939 118.184 75.6959 118.184 75.698C118.184 75.7 118.184 75.702 118.184 75.7041C118.184 75.7061 118.184 75.7082 118.184 75.7102C118.184 75.7122 118.184 75.7143 118.184 75.7163C118.184 75.7183 118.184 75.7204 118.184 75.7224C118.184 75.7244 118.184 75.7265 118.184 75.7285C118.184 75.7305 118.184 75.7326 118.184 75.7346C118.184 75.7366 118.184 75.7386 118.184 75.7407C118.184 75.7427 118.184 75.7447 118.184 75.7467C118.184 75.7488 118.184 75.7508 118.184 75.7528C118.184 75.7548 118.184 75.7568 118.184 75.7589C118.184 75.7609 118.184 75.7629 118.184 75.7649C118.184 75.7669 118.184 75.7689 118.184 75.771C118.184 75.773 118.184 75.775 118.184 75.777C118.184 75.779 118.184 75.781 118.184 75.783C118.184 75.785 118.184 75.7871 118.184 75.7891C118.184 75.7911 118.184 75.7931 118.184 75.7951C118.184 75.7971 118.184 75.7991 118.184 75.8011C118.184 75.8031 118.184 75.8051 118.184 75.8071C118.184 75.8091 118.184 75.8111 118.184 75.8131C118.184 75.8151 118.184 75.8171 118.184 75.8191C118.184 75.8211 118.184 75.8231 118.184 75.8251C118.184 75.8271 118.184 75.8291 118.184 75.8311C118.184 75.8331 118.184 75.8351 118.184 75.837C118.184 75.839 118.184 75.841 118.184 75.843C118.184 75.845 118.184 75.847 118.184 75.849C118.184 75.851 118.184 75.8529 118.184 75.8549C118.184 75.8569 118.184 75.8589 118.184 75.8609C118.184 75.8629 118.184 75.8648 118.184 75.8668C118.184 75.8688 118.184 75.8708 118.184 75.8728C118.184 75.8747 118.184 75.8767 118.184 75.8787C118.184 75.8807 118.184 75.8826 118.184 75.8846C118.184 75.8866 118.184 75.8885 118.184 75.8905C118.184 75.8925 118.184 75.8945 118.184 75.8964C118.184 75.8984 118.184 75.9004 118.184 75.9023C118.184 75.9043 118.184 75.9063 118.184 75.9082C118.184 75.9102 118.184 75.9122 118.184 75.9141C118.184 75.9161 118.184 75.918 118.184 75.92C118.184 75.922 118.184 75.9239 118.184 75.9259C118.184 75.9278 118.184 75.9298 118.184 75.9317C118.184 75.9337 118.184 75.9357 118.184 75.9376C118.184 75.9396 118.184 75.9415 118.184 75.9435C118.184 75.9454 118.184 75.9474 118.184 75.9493C118.184 75.9513 118.184 75.9532 118.184 75.9552C118.184 75.9571 118.184 75.959 118.184 75.961C118.184 75.9629 118.184 75.9649 118.184 75.9668C118.184 75.9688 118.184 75.9707 118.184 75.9726C118.184 75.9746 118.184 75.9765 118.184 75.9785C118.184 75.9804 118.184 75.9823 118.184 75.9843C118.184 75.9862 118.184 75.9881 118.184 75.9901C118.184 75.992 118.184 75.9939 118.184 75.9959C118.184 75.9978 118.184 75.9997 118.184 76.0017C118.184 76.0036 118.184 76.0055 118.184 76.0074C118.184 76.0094 118.184 76.0113 118.184 76.0132C118.184 76.0151 118.184 76.0171 118.184 76.019C118.184 76.0209 118.184 76.0228 118.184 76.0248C118.184 76.0267 118.184 76.0286 118.184 76.0305C118.184 76.0324 118.184 76.0343 118.184 76.0363C118.184 76.0382 118.184 76.0401 118.184 76.042C118.184 76.0439 118.184 76.0458 118.184 76.0477C118.184 76.0497 118.184 76.0516 118.184 76.0535C118.184 76.0554 118.184 76.0573 118.184 76.0592C118.184 76.0611 118.184 76.063 118.184 76.0649C118.184 76.0668 118.184 76.0687 118.184 76.0706C118.184 76.0725 118.184 76.0744 118.184 76.0763C118.184 76.0782 118.184 76.0801 118.184 76.082C118.184 76.0839 118.184 76.0858 118.184 76.0877C118.184 76.0896 118.184 76.0915 118.184 76.0934C118.184 76.0953 118.184 76.0972 118.184 76.0991C118.184 76.101 118.184 76.1029 118.184 76.1048C118.184 76.1066 118.184 76.1085 118.184 76.1104C118.184 76.1123 118.184 76.1142 118.184 76.1161C118.184 76.118 118.184 76.1199 118.184 76.1217C118.184 76.1236 118.184 76.1255 118.184 76.1274C118.184 76.1293 118.184 76.1311 118.184 76.133C118.184 76.1349 118.184 76.1368 118.184 76.1386C118.184 76.1405 118.184 76.1424 118.184 76.1443C118.184 76.1461 118.184 76.148 118.184 76.1499C118.184 76.1518 118.184 76.1536 118.184 76.1555C118.184 76.1574 118.184 76.1592 118.184 76.1611C118.184 76.163 118.184 76.1648 118.184 76.1667C118.184 76.1686 118.184 76.1704 118.184 76.1723C118.184 76.1742 118.184 76.176 118.184 76.1779C118.184 76.1797 118.184 76.1816 118.184 76.1835C118.184 76.1853 118.184 76.1872 118.184 76.189C118.184 76.1909 118.184 76.1927 118.184 76.1946C118.184 76.1965 118.184 76.1983 118.184 76.2002C118.184 76.202 118.184 76.2039 118.184 76.2057C118.184 76.2076 118.184 76.2094 118.184 76.2113C118.184 76.2131 118.184 76.215 118.184 76.2168C118.184 76.2187 118.184 76.2205 118.184 76.2223C118.184 76.2242 118.184 76.226 118.184 76.2279C118.184 76.2297 118.184 76.2315 118.184 76.2334C118.184 76.2352 118.184 76.2371 118.184 76.2389C118.184 76.2407 118.184 76.2426 118.184 76.2444C118.184 76.2462 118.184 76.2481 118.184 76.2499C118.184 76.2517 118.184 76.2536 118.184 76.2554C118.184 76.2572 118.184 76.2591 118.184 76.2609C118.184 76.2627 118.184 76.2645 118.184 76.2664C118.184 76.2682 118.184 76.27 118.184 76.2718C118.184 76.2737 118.184 76.2755 118.184 76.2773C118.184 76.2791 118.184 76.2809 118.184 76.2828C118.184 76.2846 118.184 76.2864 118.184 76.2882C118.184 76.29 118.184 76.2919 118.184 76.2937C118.184 76.2955 118.184 76.2973 118.184 76.2991C118.184 76.3009 118.184 76.3027 118.184 76.3045C118.184 76.3064 118.184 76.3082 118.184 76.31C118.184 76.3118 118.184 76.3136 118.184 76.3154C118.184 76.3172 118.184 76.319 118.184 76.3208C118.184 76.3226 118.184 76.3244 118.184 76.3262C118.184 76.328 118.184 76.3298 118.184 76.3316C118.184 76.3334 118.184 76.3352 118.184 76.337C118.184 76.3388 118.184 76.3406 118.184 76.3424C118.184 76.3442 118.184 76.346 118.184 76.3478C118.184 76.3496 118.184 76.3514 118.184 76.3531C118.184 76.3549 118.184 76.3567 118.184 76.3585C118.184 76.3603 118.184 76.3621 118.184 76.3639C118.184 76.3657 118.184 76.3675 118.184 76.3692C118.184 76.371 118.184 76.3728 118.184 76.3746C118.184 76.3764 118.184 76.3782 118.184 76.3799C118.184 76.3817 118.184 76.3835 118.184 76.3853C118.184 76.387 118.184 76.3888 118.184 76.3906C118.184 76.3924 118.184 76.3941 118.184 76.3959C118.184 76.3977 118.184 76.3995 118.184 76.4012C118.184 76.403 118.184 76.4048 118.184 76.4065C118.184 76.4083 118.184 76.4101 118.184 76.4118C118.184 76.4136 118.184 76.4154 118.184 76.4171C118.184 76.4189 118.184 76.4207 118.184 76.4224C118.184 76.4242 118.184 76.4259 118.184 76.4277C118.184 76.4295 118.184 76.4312 118.184 76.433C118.184 76.4347 118.184 76.4365 118.184 76.4383C118.184 76.44 118.184 76.4418 118.184 76.4435C118.184 76.4453 118.184 76.447 118.184 76.4488C118.184 76.4505 118.184 76.4523 118.184 76.454C118.184 76.4558 118.184 76.4575 118.184 76.4593C118.184 76.461 118.184 76.4628 118.184 76.4645C118.184 76.4662 118.184 76.468 118.184 76.4697C118.184 76.4715 118.184 76.4732 118.184 76.475C118.184 76.4767 118.184 76.4784 118.184 76.4802C118.184 76.4819 118.184 76.4837 118.184 76.4854C118.184 76.4871 118.184 76.4889 118.184 76.4906C118.184 76.4923 118.184 76.494 118.184 76.4958C118.184 76.4975 118.184 76.4992 118.184 76.501C118.184 76.5027 118.184 76.5044 118.184 76.5062C118.184 76.5079 118.184 76.5096 118.184 76.5113C118.184 76.5131 118.184 76.5148 118.184 76.5165C118.184 76.5182 118.184 76.52 118.184 76.5217C118.184 76.5234 118.184 76.5251 118.184 76.5268C118.184 76.5285 118.184 76.5303 118.184 76.532C118.184 76.5337 118.184 76.5354 118.184 76.5371C118.184 76.5388 118.184 76.5406 118.184 76.5423C118.184 76.544 118.184 76.5457 118.184 76.5474C118.184 76.5491 118.184 76.5508 118.184 76.5525C118.184 76.5542 118.184 76.5559 118.184 76.5576C118.184 76.5593 118.184 76.561 118.184 76.5627C118.184 76.5644 118.184 76.5661 118.184 76.5678C118.184 76.5695 118.184 76.5712 118.184 76.5729C118.184 76.5746 118.184 76.5763 118.184 76.578C118.184 76.5797 118.184 76.5814 118.184 76.5831C118.184 76.5848 118.184 76.5865 118.184 76.5882C118.184 76.5899 118.184 76.5916 118.184 76.5933C118.184 76.595 118.184 76.5966 118.184 76.5983C118.184 76.6 118.184 76.6017 118.184 76.6034C118.184 76.6051 118.184 76.6068 118.184 76.6084C118.184 76.6101 118.184 76.6118 118.184 76.6135C118.184 76.6152 118.184 76.6169 118.184 76.6185C118.184 76.6202 118.184 76.6219 118.184 76.6236C118.184 76.6252 118.184 76.6269 118.184 76.6286C118.184 76.6303 118.184 76.6319 118.184 76.6336C118.184 76.6353 118.184 76.6369 118.184 76.6386C118.184 76.6403 118.184 76.642 118.184 76.6436C118.184 76.6453 118.184 76.647 118.184 76.6486C118.184 76.6503 118.184 76.652 118.184 76.6536C118.184 76.6553 118.184 76.6569 118.184 76.6586C118.184 76.6603 118.184 76.6619 118.184 76.6636C118.184 76.6652 118.184 76.6669 118.184 76.6686C118.184 76.6702 118.184 76.6719 118.184 76.6735C118.184 76.6752 118.184 76.6768 118.184 76.6785C118.184 76.6801 118.184 76.6818 118.184 76.6834C118.184 76.6851 118.184 76.6867 118.184 76.6884C118.184 76.69 118.184 76.6917 118.184 76.6933C118.184 76.695 118.184 76.6966 118.184 76.6982C118.184 76.6999 118.184 76.7015 118.184 76.7032C118.184 76.7048 118.184 76.7065 118.184 76.7081C118.184 76.7097 118.184 76.7114 118.184 76.713C118.184 76.7147 118.184 76.7163 118.184 76.7179C118.184 76.7196 118.184 76.7212 118.184 76.7228C118.184 76.7245 118.184 76.7261 118.184 76.7277C118.184 76.7293 118.184 76.731 118.184 76.7326C118.184 76.7342 118.184 76.7359 118.184 76.7375C118.184 76.7391 118.184 76.7407 118.184 76.7424C118.184 76.744 118.184 76.7456 118.184 76.7472C118.184 76.7488 118.184 76.7505 118.184 76.7521C118.184 76.7537 118.184 76.7553 118.184 76.7569C118.184 76.7586 118.184 76.7602 118.184 76.7618C118.184 76.7634 118.184 76.765 118.184 76.7666C118.184 76.7682 118.184 76.7699 118.184 76.7715C118.184 76.7731 118.184 76.7747 118.184 76.7763C118.184 76.7779 118.184 76.7795 118.184 76.7811C118.184 76.7827 118.184 76.7843 118.184 76.7859C118.184 76.7875 118.184 76.7891 118.184 76.7907C118.184 76.7923 118.184 76.7939 118.184 76.7955C118.184 76.7971 118.184 76.7987 118.184 76.8003C118.184 76.8019 118.184 76.8035 118.184 76.8051C118.184 76.8067 118.184 76.8083 118.184 76.8099C118.184 76.8115 118.184 76.8131 118.184 76.8147C118.184 76.8163 118.184 76.8179 118.184 76.8194C118.184 76.821 118.184 76.8226 118.184 76.8242C118.184 76.8258 118.184 76.8274 118.184 76.829C118.184 76.8305 118.184 76.8321 118.184 76.8337C118.184 76.8353 118.184 76.8369 118.184 76.8384C118.184 76.84 118.184 76.8416 118.184 76.8432C118.184 76.8448 118.184 76.8463 118.184 76.8479C118.184 76.8495 118.184 76.8511 118.184 76.8526C118.184 76.8542 118.184 76.8558 118.184 76.8574C118.184 76.8589 118.184 76.8605 118.184 76.8621C118.184 76.8636 118.184 76.8652 118.184 76.8668C118.184 76.8683 118.184 76.8699 118.184 76.8715C118.184 76.873 118.184 76.8746 118.184 76.8762C118.184 76.8777 118.184 76.8793 118.184 76.8808C118.184 76.8824 118.184 76.8839 118.184 76.8855C118.184 76.8871 118.184 76.8886 118.184 76.8902C118.184 76.8917 118.184 76.8933 118.184 76.8948C118.184 76.8964 118.184 76.8979 118.184 76.8995C118.184 76.901 118.184 76.9026 118.184 76.9041C118.184 76.9057 118.184 76.9072 118.184 76.9088C118.184 76.9103 118.184 76.9119 118.184 76.9134C118.184 76.915 118.184 76.9165 118.184 76.9181C118.184 76.9196 118.184 76.9211 118.184 76.9227C118.184 76.9242 118.184 76.9258 118.184 76.9273C118.184 76.9288 118.184 76.9304 118.184 76.9319C118.184 76.9334 118.184 76.935 118.184 76.9365C118.184 76.938 118.184 76.9396 118.184 76.9411C118.184 76.9426 118.184 76.9442 118.184 76.9457C118.184 76.9472 118.184 76.9488 118.184 76.9503C118.184 76.9518 118.184 76.9533 118.184 76.9549C118.184 76.9564 118.184 76.9579 118.184 76.9594C118.184 76.961 118.184 76.9625 118.184 76.964C118.184 76.9655 118.184 76.967 118.184 76.9686C118.184 76.9701 118.184 76.9716 118.184 76.9731C118.184 76.9746 118.184 76.9761 118.184 76.9776C118.184 76.9792 118.184 76.9807 118.184 76.9822C118.184 76.9837 118.184 76.9852 118.184 76.9867C118.184 76.9882 118.184 76.9897 118.184 76.9912C118.184 76.9927 118.184 76.9943 118.184 76.9958C118.184 76.9973 118.184 76.9988 118.184 77.0003C118.184 77.0018 118.184 77.0033 118.184 77.0048C118.184 77.0063 118.184 77.0078 118.184 77.0093C118.184 77.0108 118.184 77.0123 118.184 77.0138C118.184 77.0153 118.184 77.0168 118.184 77.0182C118.184 77.0197 118.184 77.0212 118.184 77.0227C118.184 77.0242 118.184 77.0257 118.184 77.0272C118.184 77.0287 118.184 77.0302 118.184 77.0317C118.184 77.0331 118.184 77.0346 118.184 77.0361C118.184 77.0376 118.184 77.0391 118.184 77.0406C118.184 77.0421 118.184 77.0435 118.184 77.045C118.184 77.0465 118.184 77.048 118.184 77.0495C118.184 77.0509 118.184 77.0524 118.184 77.0539C118.184 77.0554 118.184 77.0568 118.184 77.0583C118.184 77.0598 118.184 77.0613 118.184 77.0627C118.184 77.0642 118.184 77.0657 118.184 77.0671C118.184 77.0686 118.184 77.0701 118.184 77.0716C118.184 77.073 118.184 77.0745 118.184 77.076C118.184 77.0774 118.184 77.0789 118.184 77.0803C118.184 77.0818 118.184 77.0833 118.184 77.0847C118.184 77.0862 118.184 77.0877 118.184 77.0891C118.184 77.0906 118.184 77.092 118.184 77.0935C118.184 77.0949 118.184 77.0964 118.184 77.0979C118.184 77.0993 118.184 77.1008 118.184 77.1022C118.184 77.1037 118.184 77.1051 118.184 77.1066C118.184 77.108 118.184 77.1095 118.184 77.1109C118.184 77.1124 118.184 77.1138 118.184 77.1152C118.184 77.1167 118.184 77.1181 118.184 77.1196C118.184 77.121 118.184 77.1225 118.184 77.1239C118.184 77.1254 118.184 77.1268 118.184 77.1282C118.184 77.1297 118.184 77.1311 118.184 77.1325C118.184 77.134 118.184 77.1354 118.184 77.1368C118.184 77.1383 118.184 77.1397 118.184 77.1412C118.184 77.1426 118.184 77.144 118.184 77.1454C118.184 77.1469 118.184 77.1483 118.184 77.1497C118.184 77.1512 118.184 77.1526 118.184 77.154C118.184 77.1554 118.184 77.1569 118.184 77.1583C118.184 77.1597 118.184 77.1611 118.184 77.1626C118.184 77.164 118.184 77.1654 118.184 77.1668C118.184 77.1682 118.184 77.1697 118.184 77.1711C118.184 77.1725 118.184 77.1739 118.184 77.1753C118.184 77.1767 118.184 77.1781 118.184 77.1796C118.184 77.181 118.184 77.1824 118.184 77.1838C118.184 77.1852 118.184 77.1866 118.184 77.188C118.184 77.1894 118.184 77.1908 118.184 77.1922C118.184 77.1936 118.184 77.1951 118.184 77.1965C118.184 77.1979 118.184 77.1993 118.184 77.2007C118.184 77.2021 118.184 77.2035 118.184 77.2049C118.184 77.2063 118.184 77.2077 118.184 77.2091C118.184 77.2105 118.184 77.2119 118.184 77.2132C118.184 77.2146 118.184 77.216 118.184 77.2174C118.184 77.2188 118.184 77.2202 118.184 77.2216C118.184 77.223 118.184 77.2244 118.184 77.2258C118.184 77.2272 118.184 77.2286 118.184 77.2299C118.184 77.2313 118.184 77.2327 118.184 77.2341C118.184 77.2355 118.184 77.2369 118.184 77.2382C118.184 77.2396 118.184 77.241 118.184 77.2424C118.184 77.2438 118.184 77.2451 118.184 77.2465C118.184 77.2479 118.184 77.2493 118.184 77.2506C118.184 77.252 118.184 77.2534 118.184 77.2548C118.184 77.2561 118.184 77.2575 118.184 77.2589C118.184 77.2603 118.184 77.2616 118.184 77.263C118.184 77.2644 118.184 77.2657 118.184 77.2671C118.184 77.2685 118.184 77.2698 118.184 77.2712C118.184 77.2726 118.184 77.2739 118.184 77.2753C118.184 77.2766 118.184 77.278 118.184 77.2794C118.184 77.2807 118.184 77.2821 118.184 77.2834C118.184 77.2848 118.184 77.2862 118.184 77.2875C118.184 77.2889 118.184 77.2902 118.184 77.2916C118.184 77.2929 118.184 77.2943 118.184 77.2956C118.184 77.297 118.184 77.2983 118.184 77.2997C118.184 77.301 118.184 77.3024 118.184 77.3037C118.184 77.3051 118.184 77.3064 118.184 77.3078C118.184 77.3091 118.184 77.3104 118.184 77.3118C118.184 77.3131 118.184 77.3145 118.184 77.3158C118.184 77.3172 118.184 77.3185 118.184 77.3198C118.184 77.3212 118.184 77.3225 118.184 77.3238C118.184 77.3252 118.184 77.3265 118.184 77.3279C118.184 77.3292 118.184 77.3305 118.184 77.3318C118.184 77.3332 118.184 77.3345 118.184 77.3358C118.184 77.3372 118.184 77.3385 118.184 77.3398C118.184 77.3411 118.184 77.3425 118.184 77.3438C118.184 77.3451 118.184 77.3464 118.184 77.3478C118.184 77.3491 118.184 77.3504 118.184 77.3517C118.184 77.3531 118.184 77.3544 118.184 77.3557C118.184 77.357 118.184 77.3583 118.184 77.3596C118.184 77.361 118.184 77.3623 118.184 77.3636C118.184 77.3649 118.184 77.3662 118.184 77.3675C118.184 77.3688 118.184 77.3701 118.184 77.3715C118.184 77.3728 118.184 77.3741 118.184 77.3754C118.184 77.3767 118.184 77.378 118.184 77.3793C118.184 77.3806 118.184 77.3819 118.184 77.3832C118.184 77.3845 118.184 77.3858 118.184 77.3871C118.184 77.3884 118.184 77.3897 118.184 77.391C118.184 77.3923 118.184 77.3936 118.184 77.3949C118.184 77.3962 118.184 77.3975 118.184 77.3988C118.184 77.4001 118.184 77.4014 118.184 77.4027C118.184 77.404 118.184 77.4053 118.184 77.4065C118.184 77.4078 118.184 77.4091 118.184 77.4104C118.184 77.4117 118.184 77.413 118.184 77.4143C118.184 77.4156 118.184 77.4168 118.184 77.4181C118.184 77.4194 118.184 77.4207 118.184 77.422C118.184 77.4232 118.184 77.4245 118.184 77.4258C118.184 77.4271 118.184 77.4284 118.184 77.4296C118.184 77.4309 118.184 77.4322 118.184 77.4335C118.184 77.4347 118.184 77.436 118.184 77.4373C118.184 77.4386 118.184 77.4398 118.184 77.4411C118.184 77.4424 118.184 77.4436 118.184 77.4449C118.184 77.4462 118.184 77.4474 118.184 77.4487C118.184 77.45 118.184 77.4512 118.184 77.4525C118.184 77.4538 118.184 77.455 118.184 77.4563C118.184 77.4575 118.184 77.4588 118.184 77.4601C118.184 77.4613 118.184 77.4626 118.184 77.4638C118.184 77.4651 118.184 77.4663 118.184 77.4676C118.184 77.4688 118.184 77.4701 118.184 77.4714C118.184 77.4726 118.184 77.4739 118.184 77.4751H134.184ZM134.184 74.6911V40.9951H118.184V74.6911H134.184ZM134.184 40.9951C134.184 39.565 134.217 38.779 134.247 38.4554L118.313 37.0068C118.214 38.0912 118.184 39.4812 118.184 40.9951H134.184ZM134.171 39.0463C134.152 39.1576 134.136 39.1941 134.152 39.148C134.168 39.1019 134.21 38.9912 134.299 38.8128L119.988 31.6574C119.28 33.0735 118.679 34.6733 118.389 36.4159L134.171 39.0463ZM134.246 38.9176C133.877 39.629 133.394 40.1364 132.973 40.4577C132.774 40.6099 132.605 40.7082 132.491 40.7671C132.378 40.8255 132.31 40.8492 132.305 40.851C132.299 40.8529 132.343 40.8376 132.446 40.8146C132.548 40.7916 132.697 40.7638 132.899 40.7373C133.311 40.6834 133.879 40.6431 134.632 40.6431V24.6431C132.128 24.6431 129.491 24.8933 127.071 25.7312C124.59 26.5898 121.728 28.301 120.042 31.5526L134.246 38.9176ZM134.632 40.6431C135.345 40.6431 135.895 40.6777 136.305 40.726C136.721 40.7751 136.923 40.8304 136.966 40.8435C137.128 40.8933 136.035 40.6071 135.131 39.2212L148.533 30.481C146.669 27.6231 143.895 26.2329 141.657 25.5467C139.408 24.8568 136.973 24.6431 134.632 24.6431V40.6431ZM135.239 39.3833C135.216 39.3487 135.121 39.201 135.034 38.9409C134.945 38.6723 134.888 38.3549 134.888 38.0191H150.888C150.888 35.0902 149.91 32.4805 148.424 30.3189L135.239 39.3833ZM149.398 42.669C149.475 42.5612 149.705 42.2649 150.178 41.7388L138.285 31.0354C137.607 31.7893 136.941 32.581 136.378 33.3692L149.398 42.669ZM149.889 42.044C149.737 42.196 149.659 42.2497 149.72 42.2022C149.772 42.1623 149.89 42.0756 150.096 41.9405C150.513 41.6659 151.137 41.2908 152.014 40.8096L144.321 26.7806C142.373 27.8487 140.117 29.1883 138.575 30.7303L149.889 42.044ZM152.014 40.8096C152.655 40.4585 153.096 40.2831 153.354 40.2019C153.613 40.1204 153.593 40.1631 153.352 40.1631V24.1631C150.002 24.1631 146.906 25.3632 144.321 26.7806L152.014 40.8096ZM153.352 40.1631C154.602 40.1631 155.349 40.245 155.717 40.3141L158.666 24.5881C156.986 24.2732 155.173 24.1631 153.352 24.1631V40.1631ZM156.199 40.3893C156.646 40.4452 157.285 40.5771 158.143 40.8478L162.961 25.5904C161.386 25.0932 159.785 24.713 158.184 24.5129L156.199 40.3893ZM199.819 57.8911L194.643 51.791L187.361 57.9695L194.72 64.0558L199.819 57.8911ZM212.587 68.4511L217.732 62.3255L217.709 62.3058L217.685 62.2864L212.587 68.4511ZM215.563 71.5231L208.54 75.3539L208.669 75.5906L208.813 75.8181L215.563 71.5231ZM213.259 79.7791L219.477 84.8127L219.56 84.7097L219.64 84.604L213.259 79.7791ZM201.643 81.0271L206.416 74.6074L206.324 74.539L206.23 74.4733L201.643 81.0271ZM200.683 80.3551L195.588 86.5228L195.834 86.726L196.095 86.909L200.683 80.3551ZM193.867 74.0191L188.21 79.676L188.24 79.7057L188.27 79.7352L193.867 74.0191ZM186.859 67.4911L191.856 61.2442L178.859 50.8461V67.4911H186.859ZM186.667 78.2431L178.776 76.9279L178.727 77.222L178.7 77.5188L186.667 78.2431ZM185.803 80.7391L178.744 76.9744L178.694 77.0673L178.647 77.1614L185.803 80.7391ZM171.019 80.6431L163.769 84.0262L163.84 84.1775L163.917 84.3256L171.019 80.6431ZM170.155 78.1471L162.182 78.8115L162.215 79.1973L162.284 79.5782L170.155 78.1471ZM170.155 14.0191L162.264 12.7039L162.215 12.998L162.188 13.2948L170.155 14.0191ZM171.019 11.4271L163.917 7.74457L163.84 7.89276L163.769 8.04402L171.019 11.4271ZM185.035 10.4671L179.854 16.5626L179.901 16.603L179.949 16.6425L185.035 10.4671ZM186.763 14.6911L178.767 14.9576L178.777 15.2669L178.812 15.5745L186.763 14.6911ZM186.859 47.8111H178.859V64.8914L191.98 53.9569L186.859 47.8111ZM192.043 42.9151L186.464 37.1813L186.425 37.2195L186.386 37.2583L192.043 42.9151ZM197.323 38.0191L192.885 31.3627L192.53 31.5998L192.201 31.8733L197.323 38.0191ZM198.475 37.2511L202.912 43.9075L203.142 43.7542L203.361 43.5854L198.475 37.2511ZM209.707 38.5951L203.4 43.5173L203.467 43.6026L203.536 43.6862L209.707 38.5951ZM209.323 49.8271L204.185 43.6949L204.166 43.7109L204.147 43.727L209.323 49.8271ZM194.72 64.0558L207.488 74.6158L217.685 62.2864L204.917 51.7264L194.72 64.0558ZM207.441 74.5767C208.118 75.1456 208.545 75.5454 208.785 75.7935C208.901 75.9138 208.93 75.9532 208.903 75.9185C208.886 75.8976 208.73 75.7027 208.54 75.3539L222.586 67.6923C221.386 65.4928 219.246 63.5966 217.732 62.3255L207.441 74.5767ZM208.813 75.8181C208.689 75.6219 208.235 74.8188 208.235 73.5391H224.235C224.235 70.9794 223.333 68.8323 222.312 67.2281L208.813 75.8181ZM208.235 73.5391C208.235 73.0712 208.309 72.7685 208.334 72.6766C208.359 72.583 208.359 72.6214 208.27 72.8073C208.082 73.202 207.67 73.9067 206.877 74.9542L219.64 84.604C220.832 83.0275 221.908 81.3802 222.712 79.6949C223.486 78.0704 224.235 75.9439 224.235 73.5391H208.235ZM207.041 74.7455C206.649 75.229 206.322 75.5861 206.063 75.8419C205.8 76.1007 205.644 76.218 205.599 76.2493C205.552 76.2822 205.682 76.1825 205.986 76.0685C206.303 75.9495 206.823 75.8111 207.499 75.8111V91.8111C210.519 91.8111 213 90.5988 214.774 89.357C216.562 88.1059 218.12 86.4891 219.477 84.8127L207.041 74.7455ZM207.499 75.8111C208.013 75.8111 208.354 75.8937 208.471 75.9258C208.59 75.9589 208.577 75.9677 208.414 75.89C208.065 75.7241 207.411 75.347 206.416 74.6074L196.869 87.4468C198.37 88.5632 199.941 89.5781 201.544 90.3402C203.074 91.0675 205.141 91.8111 207.499 91.8111V75.8111ZM206.23 74.4733L205.27 73.8013L196.095 86.909L197.055 87.581L206.23 74.4733ZM205.778 74.1874C204.587 73.2041 202.523 71.2983 199.464 68.303L188.27 79.7352C191.355 82.7559 193.834 85.0741 195.588 86.5228L205.778 74.1874ZM199.524 68.3623C196.42 65.2587 193.823 62.8174 191.856 61.2442L181.861 73.7381C183.095 74.7248 185.169 76.6355 188.21 79.676L199.524 68.3623ZM178.859 67.4911V74.8831H194.859V67.4911H178.859ZM178.859 74.8831C178.859 75.5108 178.845 76.001 178.824 76.3707C178.813 76.5534 178.802 76.692 178.792 76.7917C178.781 76.8935 178.774 76.9352 178.776 76.9279L194.558 79.5583C194.796 78.128 194.859 76.4809 194.859 74.8831H178.859ZM178.7 77.5188C178.738 77.091 178.824 76.8316 178.843 76.7782C178.863 76.7198 178.847 76.781 178.744 76.9744L192.862 84.5038C193.633 83.0571 194.435 81.1512 194.634 78.9674L178.7 77.5188ZM178.647 77.1614C179.048 76.3604 179.585 75.8002 180.043 75.4535C180.26 75.289 180.444 75.1838 180.567 75.1214C180.69 75.0594 180.764 75.0341 180.771 75.0315C180.774 75.0307 180.597 75.0886 180.17 75.1427C179.752 75.1958 179.174 75.2351 178.411 75.2351V91.2351C180.889 91.2351 183.5 90.9977 185.89 90.1907C188.315 89.3719 191.275 87.6823 192.958 84.3168L178.647 77.1614ZM178.411 75.2351C177.679 75.2351 177.129 75.1953 176.736 75.1429C176.335 75.0897 176.175 75.0338 176.186 75.0378C176.198 75.0419 176.479 75.1405 176.871 75.4428C177.29 75.7658 177.761 76.2674 178.121 76.9606L163.917 84.3256C165.586 87.5443 168.407 89.2653 170.892 90.1364C173.306 90.9831 175.929 91.2351 178.411 91.2351V75.2351ZM178.268 77.26C178.138 76.9816 178.065 76.7917 178.027 76.6822C177.987 76.5685 178.002 76.5861 178.026 76.716L162.284 79.5782C162.578 81.1957 163.156 82.7121 163.769 84.0262L178.268 77.26ZM178.127 77.4827C178.091 77.0525 178.059 76.1979 178.059 74.7871H162.059C162.059 76.3203 162.09 77.7057 162.182 78.8115L178.127 77.4827ZM178.059 74.7871V17.2831H162.059V74.7871H178.059ZM178.059 17.2831C178.059 15.853 178.092 15.067 178.122 14.7434L162.188 13.2948C162.089 14.3792 162.059 15.7692 162.059 17.2831H178.059ZM178.046 15.3343C178.031 15.4247 178.023 15.4253 178.056 15.3249C178.089 15.2259 178.153 15.0561 178.268 14.8102L163.769 8.04402C163.117 9.442 162.545 11.0161 162.264 12.7039L178.046 15.3343ZM178.121 15.1096C177.752 15.821 177.269 16.3284 176.848 16.6497C176.649 16.8019 176.48 16.9002 176.366 16.9591C176.253 17.0175 176.185 17.0412 176.18 17.043C176.174 17.0449 176.218 17.0296 176.321 17.0066C176.423 16.9836 176.572 16.9558 176.774 16.9293C177.186 16.8754 177.754 16.8351 178.507 16.8351V0.835104C176.003 0.835104 173.366 1.08531 170.946 1.92322C168.465 2.78183 165.603 4.49302 163.917 7.74457L178.121 15.1096ZM178.507 16.8351C179.611 16.8351 180.234 16.937 180.502 17.0042C180.779 17.0733 180.411 17.0367 179.854 16.5626L190.216 4.37159C186.698 1.38124 182.083 0.835104 178.507 0.835104V16.8351ZM179.949 16.6425C179.392 16.1837 179.05 15.6448 178.878 15.2242C178.726 14.8529 178.759 14.7075 178.767 14.9576L194.758 14.4246C194.647 11.0804 193.559 7.12366 190.12 4.29166L179.949 16.6425ZM178.812 15.5745C178.811 15.5706 178.816 15.6101 178.822 15.7037C178.828 15.7949 178.834 15.919 178.84 16.0806C178.852 16.4069 178.859 16.8353 178.859 17.3791H194.859C194.859 16.1148 194.829 14.8485 194.714 13.8077L178.812 15.5745ZM178.859 17.3791V47.8111H194.859V17.3791H178.859ZM191.98 53.9569C193.43 52.7487 195.375 50.897 197.7 48.572L186.386 37.2583C184.103 39.5413 182.591 40.9536 181.737 41.6653L191.98 53.9569ZM197.622 48.6489C199.974 46.3602 201.546 44.9132 202.444 44.1649L192.201 31.8733C190.795 33.045 188.848 34.862 186.464 37.1813L197.622 48.6489ZM201.76 44.6755L202.912 43.9075L194.037 30.5947L192.885 31.3627L201.76 44.6755ZM203.361 43.5854C204.144 42.9818 204.644 42.7074 204.878 42.6025C205.117 42.495 204.864 42.6591 204.235 42.6591V26.6591C199.952 26.6591 196.272 28.8469 193.588 30.9168L203.361 43.5854ZM204.235 42.6591C202.803 42.6591 202.047 42.0766 202.131 42.1375C202.147 42.1488 202.275 42.2447 202.51 42.4834C202.741 42.7189 203.039 43.0549 203.4 43.5173L216.013 33.6729C214.724 32.0207 213.223 30.4063 211.474 29.1487C209.735 27.8976 207.267 26.6591 204.235 26.6591V42.6591ZM203.536 43.6862C204.384 44.7147 204.812 45.3883 204.996 45.7392C205.082 45.9023 205.064 45.9021 205.02 45.7552C204.976 45.6106 204.875 45.2211 204.875 44.6431H220.875C220.875 42.0973 220 39.9007 219.169 38.315C218.297 36.6499 217.141 35.0355 215.878 33.504L203.536 43.6862ZM204.875 44.6431C204.875 43.926 205.02 43.3687 205.15 43.019C205.214 42.8459 205.275 42.7193 205.317 42.6406C205.359 42.562 205.387 42.5222 205.387 42.5213C205.388 42.5201 205.368 42.5494 205.319 42.6088C205.27 42.6679 205.198 42.7505 205.097 42.8562C204.891 43.0708 204.595 43.3511 204.185 43.6949L214.461 55.9593C215.965 54.6989 217.438 53.241 218.586 51.565C219.72 49.9103 220.875 47.5435 220.875 44.6431H204.875ZM204.147 43.727L194.643 51.791L204.995 63.9912L214.499 55.9272L204.147 43.727ZM264.724 33.2191L267.95 25.8984L267.94 25.8941L267.93 25.8898L264.724 33.2191ZM268.852 44.1631L276.155 47.4284L276.852 45.8701V44.1631H268.852ZM243.7 100.419L236.396 97.1538L236.361 97.2338L236.327 97.3147L243.7 100.419ZM242.356 103.203L235.496 99.0872L235.338 99.3506L235.2 99.6254L242.356 103.203ZM240.724 105.027L235.924 98.6271V98.6271L240.724 105.027ZM232.756 104.451L229.53 111.772L229.567 111.788L229.604 111.804L232.756 104.451ZM236.308 76.5151L243.553 79.9079L245.349 76.0715L243.186 72.4294L236.308 76.5151ZM217.204 44.3551L224.082 40.2694L224.064 40.2389L224.045 40.2087L217.204 44.3551ZM220.468 33.5071L216.412 26.6116L216.4 26.6182L216.389 26.6248L220.468 33.5071ZM228.532 32.3551L232.969 25.6987V25.6987L228.532 32.3551ZM230.164 33.9871L223.17 37.8722L223.436 38.3499L223.764 38.7871L230.164 33.9871ZM235.444 42.9151L228.513 46.9105L228.541 46.959L228.569 47.007L235.444 42.9151ZM244.564 57.9871L237.754 62.1851L246.964 77.1266L252.2 60.3733L244.564 57.9871ZM249.748 46.1791L257.021 49.51L257.027 49.4972L257.033 49.4844L249.748 46.1791ZM254.74 35.1391L247.794 31.17L247.567 31.5672L247.387 31.9877L254.74 35.1391ZM255.892 33.5071L262.139 38.5047L262.193 38.4363L262.247 38.3667L255.892 33.5071ZM261.498 40.5398C262.131 40.819 262.564 41.0603 262.843 41.2415C263.125 41.4244 263.187 41.5059 263.133 41.4476C263.07 41.3808 262.869 41.1449 262.686 40.7214C262.495 40.2781 262.388 39.772 262.388 39.2671H278.388C278.388 31.8117 272.329 27.8282 267.95 25.8984L261.498 40.5398ZM262.388 39.2671C262.388 39.2451 262.391 39.1895 262.408 39.1148C262.426 39.0399 262.449 38.9832 262.464 38.9534L276.775 46.1088C277.846 43.9668 278.388 41.653 278.388 39.2671H262.388ZM262.464 38.9534C262.2 39.4813 261.974 39.9411 261.805 40.3007C261.726 40.4698 261.623 40.6925 261.527 40.9207C261.483 41.0243 261.397 41.2327 261.308 41.4884C261.265 41.6124 261.186 41.8477 261.109 42.1465C261.071 42.2933 260.852 43.1057 260.852 44.1631H276.852C276.852 44.7714 276.781 45.2502 276.739 45.4981C276.692 45.7759 276.638 45.9998 276.601 46.1445C276.528 46.4278 276.455 46.6438 276.42 46.7448C276.347 46.9545 276.284 47.1019 276.273 47.1296C276.241 47.2057 276.234 47.2164 276.282 47.1135C276.369 46.9291 276.527 46.6049 276.775 46.1088L262.464 38.9534ZM261.548 40.8978L236.396 97.1538L251.003 103.684L276.155 47.4284L261.548 40.8978ZM236.327 97.3147C235.868 98.403 235.592 98.9274 235.496 99.0872L249.216 107.319C249.888 106.199 250.507 104.867 251.073 103.524L236.327 97.3147ZM235.2 99.6254C235.592 98.8417 236.022 98.5534 235.924 98.6271L245.524 111.427C246.962 110.349 248.479 108.844 249.511 106.781L235.2 99.6254ZM235.924 98.6271C236.326 98.3257 236.748 98.1269 237.129 98.0125C237.496 97.9023 237.755 97.8911 237.844 97.8911V113.891C240.371 113.891 243.111 113.237 245.524 111.427L235.924 98.6271ZM237.844 97.8911C238.096 97.8911 238.229 97.916 238.207 97.9124C238.192 97.9097 238.089 97.8909 237.886 97.8335C237.468 97.715 236.821 97.4895 235.907 97.0979L229.604 111.804C231.975 112.82 234.953 113.891 237.844 113.891V97.8911ZM235.982 97.1304C235.34 96.8474 234.897 96.6026 234.61 96.4174C234.319 96.23 234.25 96.1449 234.303 96.2002C234.363 96.263 234.574 96.5035 234.767 96.9434C234.971 97.4057 235.092 97.9461 235.092 98.4991H219.092C219.092 105.963 225.268 109.894 229.53 111.772L235.982 97.1304ZM235.092 98.4991C235.092 99.3588 234.922 99.8818 234.983 99.6456C235.005 99.5621 235.073 99.3231 235.227 98.8808C235.531 98.0041 236.033 96.7109 236.774 94.944C238.246 91.4311 240.496 86.435 243.553 79.9079L229.063 73.1224C225.975 79.7152 223.617 84.9431 222.018 88.7582C221.223 90.6553 220.573 92.3021 220.109 93.6414C219.878 94.3071 219.659 94.9951 219.488 95.6576C219.357 96.1674 219.092 97.2554 219.092 98.4991H235.092ZM243.186 72.4294L224.082 40.2694L210.326 48.4408L229.43 80.6008L243.186 72.4294ZM224.045 40.2087C223.798 39.8002 223.604 39.4562 223.456 39.1726C223.307 38.8863 223.218 38.689 223.171 38.5719C223.12 38.4487 223.137 38.4664 223.171 38.6034C223.201 38.7286 223.284 39.0999 223.284 39.6511H207.284C207.284 41.66 207.868 43.4203 208.357 44.6183C208.889 45.9229 209.594 47.2335 210.362 48.5015L224.045 40.2087ZM223.284 39.6511C223.284 40.2955 223.142 40.8373 222.979 41.2247C222.825 41.5894 222.679 41.7563 222.694 41.7381C222.711 41.7184 222.84 41.5728 223.159 41.3202C223.475 41.0705 223.926 40.7569 224.546 40.3894L216.389 26.6248C212.733 28.7915 207.284 32.9036 207.284 39.6511H223.284ZM224.524 40.4026C225.359 39.9112 225.904 39.6622 226.196 39.5519C226.334 39.5001 226.354 39.5025 226.271 39.5206C226.192 39.5379 225.941 39.5871 225.556 39.5871V23.5871C222.048 23.5871 218.756 25.2328 216.412 26.6116L224.524 40.4026ZM225.556 39.5871C225.686 39.5871 224.998 39.6142 224.094 39.0115L232.969 25.6987C230.529 24.072 227.858 23.5871 225.556 23.5871V39.5871ZM224.094 39.0115C224.124 39.0312 224.024 38.9695 223.859 38.804C223.691 38.636 223.426 38.332 223.17 37.8722L237.157 30.102C236.02 28.0562 234.398 26.6509 232.969 25.6987L224.094 39.0115ZM223.764 38.7871C223.598 38.5655 223.585 38.5186 223.894 39.0224C224.128 39.4023 224.456 39.948 224.886 40.6754C225.743 42.1252 226.95 44.1992 228.513 46.9105L242.375 38.9197C240.802 36.191 239.56 34.057 238.658 32.5308C237.904 31.2565 237.089 29.8877 236.564 29.1871L223.764 38.7871ZM228.569 47.007C231.788 52.4137 234.849 57.4734 237.754 62.1851L251.374 53.7891C248.518 49.1568 245.5 44.1685 242.318 38.8232L228.569 47.007ZM252.2 60.3733C252.197 60.3809 252.494 59.6038 253.425 57.483C254.264 55.5716 255.46 52.9195 257.021 49.51L242.474 42.8482C240.9 46.2867 239.663 49.0266 238.775 51.0512C237.978 52.8665 237.25 54.5693 236.928 55.6009L252.2 60.3733ZM257.033 49.4844C260.133 42.6507 261.857 38.8408 262.093 38.2905L247.387 31.9877C247.389 31.9823 247.365 32.0375 247.292 32.2009C247.227 32.347 247.138 32.546 247.023 32.8005C246.795 33.3089 246.473 34.0209 246.058 34.939C245.228 36.7743 244.03 39.4187 242.463 42.8738L257.033 49.4844ZM261.686 39.1082C261.657 39.158 261.671 39.1287 261.755 39.0086C261.837 38.8932 261.961 38.7268 262.139 38.5047L249.645 28.5095C249.005 29.3088 248.339 30.2157 247.794 31.17L261.686 39.1082ZM262.247 38.3667C261.946 38.7594 261.461 39.2031 260.796 39.5171C260.15 39.8223 259.61 39.8751 259.348 39.8751V23.8751C255.6 23.8751 252.009 25.415 249.537 28.6475L262.247 38.3667ZM259.348 39.8751C259.346 39.8751 259.519 39.876 259.903 39.9722C260.287 40.0682 260.821 40.2436 261.517 40.5484L267.93 25.8898C265.294 24.7365 262.371 23.8751 259.348 23.8751V39.8751Z" fill="#FAFAFA" mask="url(#path-1-outside-1_4_1877)"/>
</svg>
