<svg width="127" height="116" viewBox="0 0 127 116" fill="none" xmlns="http://www.w3.org/2000/svg">
<g clip-path="url(#clip0_461_1714)">
<mask id="mask0_461_1714" style="mask-type:luminance" maskUnits="userSpaceOnUse" x="0" y="0" width="127" height="116">
<path d="M126.5 0H0.5V116H126.5V0Z" fill="white"/>
</mask>
<g mask="url(#mask0_461_1714)">
<mask id="mask1_461_1714" style="mask-type:alpha" maskUnits="userSpaceOnUse" x="0" y="0" width="127" height="102">
<path d="M0.954956 0.681396H126.275V101.551H0.954956V0.681396Z" fill="#FF0000"/>
</mask>
<g mask="url(#mask1_461_1714)">
<g opacity="0.2">
<path d="M113.328 101.551C121.442 90.9786 126.275 77.7457 126.275 63.3844C126.275 28.7547 98.2207 0.681396 63.6148 0.681396C29.0089 0.681396 0.954956 28.7547 0.954956 63.3844C0.954956 77.7457 5.78075 90.9786 13.9015 101.551H113.328Z" fill="#05A144"/>
</g>
</g>
<path d="M0.670105 101.55H123.948" stroke="#05A144" stroke-width="0.614915" stroke-linecap="round"/>
<path d="M5.09705 108.025H58.2186" stroke="#05A144" stroke-width="0.614915" stroke-linecap="round"/>
<mask id="mask2_461_1714" style="mask-type:alpha" maskUnits="userSpaceOnUse" x="10" y="114" width="76" height="2">
<path d="M10.8867 114.503H85.4661V115.014H10.8867V114.503Z" fill="#FF0000"/>
</mask>
<g mask="url(#mask2_461_1714)">
<path d="M10.8868 114.84H85.4662" stroke="#05A144" stroke-width="0.614915" stroke-linecap="round"/>
</g>
<path d="M78.314 108.025H115.434" stroke="#05A144" stroke-width="0.614915" stroke-linecap="round"/>
<path d="M61.9672 108.025H75.2476" stroke="#05A144" stroke-width="0.614915" stroke-linecap="round"/>
<mask id="mask3_461_1714" style="mask-type:alpha" maskUnits="userSpaceOnUse" x="90" y="114" width="14" height="2">
<path d="M90.5725 114.504H103.853V115.015H90.5725V114.504Z" fill="#FF0000"/>
</mask>
<g mask="url(#mask3_461_1714)">
<path d="M90.5724 114.841H103.853" stroke="#05A144" stroke-width="0.614915" stroke-linecap="round"/>
</g>
<path d="M116.796 12.7196H111.221C111.296 12.5052 111.347 12.2783 111.347 12.0387C111.347 10.9102 110.433 9.99609 109.305 9.99609H92.2764C91.1487 9.99609 90.2352 10.9102 90.2352 12.0387C90.2352 12.5683 90.4368 13.0411 90.7644 13.4067H82.7382C81.6105 13.4067 80.697 14.3209 80.697 15.4494C80.697 16.5778 81.6105 17.492 82.7382 17.492H85.3149C84.9873 17.8576 84.7857 18.3304 84.7857 18.8537C84.7857 19.9885 85.6992 20.9026 86.8269 20.9026H90.3549C90.2793 21.117 90.2352 21.3439 90.2352 21.5835C90.2352 22.712 91.1487 23.6261 92.2764 23.6261H104.536C105.664 23.6261 106.577 22.712 106.577 21.5835C106.577 21.0539 106.376 20.5811 106.048 20.2217H112.027C113.155 20.2217 114.068 19.3013 114.068 18.1728C114.068 17.6496 113.867 17.1767 113.539 16.8111H116.796C117.924 16.8111 118.837 15.897 118.837 14.7685C118.837 13.64 117.924 12.7196 116.796 12.7196Z" fill="#E796A3"/>
<path d="M116.796 12.7196H111.221C111.296 12.5052 111.347 12.2783 111.347 12.0387C111.347 10.9102 110.433 9.99609 109.305 9.99609H92.2764C91.1487 9.99609 90.2352 10.9102 90.2352 12.0387C90.2352 12.5683 90.4368 13.0411 90.7644 13.4067H82.7382C81.6105 13.4067 80.697 14.3209 80.697 15.4494C80.697 16.5778 81.6105 17.492 82.7382 17.492H85.3149C84.9873 17.8576 84.7857 18.3304 84.7857 18.8537C84.7857 19.9885 85.6992 20.9026 86.8269 20.9026H90.3549C90.2793 21.117 90.2352 21.3439 90.2352 21.5835C90.2352 22.712 91.1487 23.6261 92.2764 23.6261H104.536C105.664 23.6261 106.577 22.712 106.577 21.5835C106.577 21.0539 106.376 20.5811 106.048 20.2217H112.027C113.155 20.2217 114.068 19.3013 114.068 18.1728C114.068 17.6496 113.867 17.1767 113.539 16.8111H116.796C117.924 16.8111 118.837 15.897 118.837 14.7685C118.837 13.64 117.924 12.7196 116.796 12.7196Z" stroke="#05A144" stroke-width="0.245966"/>
<path d="M91.9352 16.47H102.834" stroke="#05A144" stroke-width="0.614915" stroke-linecap="round"/>
<path d="M103.854 16.47H106.236" stroke="#05A144" stroke-width="0.614915" stroke-linecap="round"/>
<path d="M39.1499 13.2895C39.1499 13.6678 38.8475 13.9704 38.4695 13.9704C38.0915 13.9704 37.7891 13.6678 37.7891 13.2895C37.7891 12.9113 38.0915 12.6086 38.4695 12.6086C38.8475 12.6086 39.1499 12.9113 39.1499 13.2895Z" stroke="#05A144" stroke-width="0.614915" stroke-linecap="round"/>
<path d="M101.129 48.0485C101.129 48.4268 100.826 48.7294 100.448 48.7294C100.07 48.7294 99.7678 48.4268 99.7678 48.0485C99.7678 47.6703 100.07 47.3677 100.448 47.3677C100.826 47.3677 101.129 47.6703 101.129 48.0485Z" stroke="#05A144" stroke-width="0.614915" stroke-linecap="round"/>
<path d="M15.3862 43.6588L16.8289 42.2151" stroke="#05A144" stroke-width="0.614915" stroke-linecap="round"/>
<path d="M15.3862 42.2151L16.8289 43.6588" stroke="#05A144" stroke-width="0.614915" stroke-linecap="round"/>
<path d="M105.334 38.283L107.143 36.4736" stroke="#05A144" stroke-width="0.614915" stroke-linecap="round"/>
<path d="M105.334 36.4731L107.143 38.2825" stroke="#05A144" stroke-width="0.614915" stroke-linecap="round"/>
<path d="M6.91412 59.1807H15.0852" stroke="#05A144" stroke-width="0.614915" stroke-linecap="round"/>
<path d="M16.1082 59.1807H18.1494" stroke="#05A144" stroke-width="0.614915" stroke-linecap="round"/>
<path d="M109.078 77.696H104.989" stroke="#05A144" stroke-width="0.614915" stroke-linecap="round"/>
<path d="M103.966 77.696H102.265" stroke="#05A144" stroke-width="0.614915" stroke-linecap="round"/>
<g opacity="0.2">
<path d="M75.8746 82.4664C75.8746 83.0338 70.3873 83.4877 63.6148 83.4877C56.8423 83.4877 51.355 83.0338 51.355 82.4664C51.355 81.9053 56.8423 81.4451 63.6148 81.4451C70.3873 81.4451 75.8746 81.9053 75.8746 82.4664Z" fill="#05A144"/>
</g>
<g opacity="0.5">
<path d="M78.9204 70.8165C76.2876 67.8359 75.5451 63.8131 74.6801 59.1271C73.8311 54.5279 69.1933 49.989 63.7874 50.7654L63.7839 50.7468C63.7282 50.7571 63.6747 50.7798 63.6189 50.7901C63.5632 50.8005 63.5051 50.7984 63.4494 50.8087L63.4528 50.8273C58.1269 52.0376 55.4098 57.938 56.2588 62.5372C57.1238 67.2232 57.8663 71.246 56.4778 74.971C59.1276 75.9612 62.332 76.1372 65.1651 75.9333C65.4689 76.954 66.9099 77.5398 68.5023 77.245C70.0885 76.9514 71.2252 75.8884 71.1507 74.8253C73.8694 74.0015 76.793 72.6911 78.9204 70.8165Z" fill="#05A144"/>
</g>
<path d="M37.3784 33.9286C37.9139 34.4645 38.714 33.8908 38.6888 33.3549C38.6636 32.8443 38.4557 32.693 37.6115 32.2769C36.5342 31.7473 35.942 31.9869 35.9735 32.2517C36.0113 32.5164 36.3956 32.5164 36.6224 32.6551C37.0697 32.9136 36.8429 33.3928 37.3784 33.9286Z" fill="#05A144"/>
<g opacity="0.5">
<path d="M37.5707 32.2898C38.0936 31.4828 38.4716 30.3859 39.026 30.5183C39.5741 30.6444 40.2104 31.1298 39.5741 31.9052C38.9441 32.687 37.2053 32.958 37.2494 32.7374C37.2998 32.5167 37.5707 32.2898 37.5707 32.2898Z" fill="#05A144"/>
</g>
<g opacity="0.5">
<path d="M37.0497 32.8184C36.6276 31.7592 35.8779 30.5614 36.4071 30.2147C36.9363 29.8616 37.5159 29.7797 37.5474 30.4794C37.5789 31.1729 37.5789 32.9003 37.2954 33.0579C37.0182 33.2092 37.0497 32.8184 37.0497 32.8184Z" fill="#05A144"/>
</g>
<path d="M36.6616 33.089C36.838 33.089 36.9514 32.8867 36.9514 32.8867" stroke="#05A144" stroke-width="0.122983" stroke-linecap="round"/>
<path d="M36.7462 33.1537C36.9226 33.1537 37.036 32.9514 37.036 32.9514" stroke="#05A144" stroke-width="0.122983" stroke-linecap="round"/>
<path d="M36.8071 33.464C36.9835 33.464 37.0969 33.2617 37.0969 33.2617" stroke="#05A144" stroke-width="0.122983" stroke-linecap="round"/>
<path d="M36.8071 33.5739C36.9835 33.5675 37.0969 33.3652 37.0969 33.3652" stroke="#05A144" stroke-width="0.122983" stroke-linecap="round"/>
<g opacity="0.5">
<path d="M80.498 48.4746C81.3876 51.7787 79.1133 54.7619 74.0544 55.886" stroke="#05A144" stroke-width="0.614915" stroke-linecap="round" stroke-dasharray="2.46 2.46"/>
</g>
</g>
<ellipse cx="54.8612" cy="54.8575" rx="7.01014" ry="7.01498" fill="white"/>
<path d="M54.6957 52.8477V64.8477L53.3757 65.9037H52.0797V52.8477H54.6957ZM53.4477 67.0557C53.8797 67.0557 54.2477 67.2077 54.5517 67.5117C54.8557 67.7997 55.0077 68.1597 55.0077 68.5917C55.0077 69.0237 54.8557 69.3917 54.5517 69.6957C54.2477 69.9997 53.8797 70.1517 53.4477 70.1517C53.0317 70.1517 52.6717 69.9997 52.3677 69.6957C52.0637 69.3917 51.9117 69.0237 51.9117 68.5917C51.9117 68.1597 52.0557 67.7997 52.3437 67.5117C52.6477 67.2077 53.0157 67.0557 53.4477 67.0557Z" fill="#CD2F48"/>
</g>
<defs>
<clipPath id="clip0_461_1714">
<rect width="126" height="116" fill="white" transform="translate(0.5)"/>
</clipPath>
</defs>
</svg>
