<svg width="33" height="34" viewBox="0 0 33 34" fill="none" xmlns="http://www.w3.org/2000/svg">
<path d="M22 22.3132L16.5 16.8132L11 22.3132" stroke="black" stroke-opacity="0.4" stroke-width="2" stroke-linecap="round" stroke-linejoin="round"/>
<path d="M16.5 16.8132V29.1882" stroke="black" stroke-opacity="0.4" stroke-width="2" stroke-linecap="round" stroke-linejoin="round"/>
<path d="M28.0363 25.5995C29.3773 24.8684 30.4368 23.7115 31.0473 22.3114C31.6579 20.9113 31.7848 19.3477 31.408 17.8675C31.0313 16.3872 30.1723 15.0746 28.9667 14.1368C27.7611 13.1989 26.2774 12.6893 24.75 12.6883H23.0175C22.6013 11.0785 21.8256 9.58398 20.7487 8.31714C19.6718 7.05029 18.3217 6.04407 16.7999 5.37411C15.2781 4.70415 13.6243 4.38789 11.9627 4.44911C10.3011 4.51033 8.67497 4.94743 7.20662 5.72756C5.73827 6.50769 4.46588 7.61054 3.48511 8.9532C2.50434 10.2959 1.84071 11.8434 1.5441 13.4794C1.2475 15.1155 1.32565 16.7975 1.77267 18.399C2.2197 20.0005 3.02396 21.4798 4.12501 22.7258" stroke="black" stroke-opacity="0.4" stroke-width="2" stroke-linecap="round" stroke-linejoin="round"/>
<path d="M22 22.3132L16.5 16.8132L11 22.3132" stroke="black" stroke-opacity="0.4" stroke-width="2" stroke-linecap="round" stroke-linejoin="round"/>
</svg>
